<svg width="147" height="137" viewBox="0 0 147 137" fill="none" xmlns="http://www.w3.org/2000/svg">
<path d="M5.4 137C3.93333 137 2.66667 136.733 1.6 136.2C0.666667 135.8 0.2 135 0.2 133.8C0.2 132.467 0.6 131.533 1.4 131C2.33333 130.333 3.53333 129.8 5 129.4C8.86667 128.333 12.2 126.667 15 124.4C17.9333 122.133 20.1333 119.333 21.6 116C24.9333 108.533 28.0667 101.2 31 94C33.9333 86.6667 36.8 79.4667 39.6 72.4C42.4 65.2 45.2 57.9333 48 50.6C50.8 43.1333 53.6 35.6 56.4 28C58.4 22.5333 59.6667 18.6 60.2 16.2C60.7333 13.6667 61.1333 12.2 61.4 11.8C63.8 11.1333 66.0667 10.5333 68.2 9.99999C70.3333 9.46666 72.6 8.73333 75 7.79999C77.4 6.86666 79.4 5.66666 81 4.19999C82.7333 2.73333 84 1.59999 84.8 0.799988C85.3333 0.399993 85.8667 0.199996 86.4 0.199996C86.9333 0.0666644 87.4667 0.466663 88 1.39999C88.4 2.19999 88.7333 3.06666 89 3.99999C89.4 4.79999 89.7333 5.73333 90 6.79999C92.8 15.7333 95.6667 24.8667 98.6 34.2C101.533 43.4 104.467 52.6 107.4 61.8C110.467 71 113.467 80.1333 116.4 89.2C119.333 98.1333 122.2 106.867 125 115.4C125.8 118.067 127 120.333 128.6 122.2C130.333 124.067 132.267 125.533 134.4 126.6C136.533 127.667 138.933 128.6 141.6 129.4C143.067 129.8 144.2 130.333 145 131C145.933 131.533 146.4 132.4 146.4 133.6C146.4 134.533 146 135.267 145.2 135.8C144.4 136.333 143.467 136.6 142.4 136.6C139.733 136.6 136.4 136.467 132.4 136.2C128.533 136.067 124.6 135.933 120.6 135.8C116.6 135.667 113.067 135.6 110 135.6C107.467 135.6 104.333 135.667 100.6 135.8C97 135.933 93.3333 136.067 89.6 136.2C85.8667 136.333 82.6667 136.4 80 136.4C78.8 136.4 77.7333 136.2 76.8 135.8C76 135.267 75.6 134.533 75.6 133.6C75.6 132.4 76.0667 131.467 77 130.8C77.9333 130.133 79.0667 129.667 80.4 129.4C85.3333 128.333 88.9333 126.933 91.2 125.2C93.4667 123.467 94.2 120.867 93.4 117.4C92.8667 114.867 92.2 112.2 91.4 109.4C90.6 106.6 89.8 103.8 89 101C88.3333 98.0667 87.6 95.2667 86.8 92.6C86.5333 91.5333 86.2 90.7333 85.8 90.2C85.4 89.6667 84.6 89.4 83.4 89.4H48C47.0667 89.4 46.3333 89.6667 45.8 90.2C45.2667 90.7333 44.8667 91.6 44.6 92.8C44.0667 94.6667 43.4667 96.5333 42.8 98.4C42.1333 100.267 41.4667 102.133 40.8 104C40.2667 105.867 39.7333 107.733 39.2 109.6C38.6667 111.467 38.1333 113.267 37.6 115C36.6667 119 37.0667 122.067 38.8 124.2C40.5333 126.333 44.2667 128.067 50 129.4C53.2 130.067 54.8 131.467 54.8 133.6C54.8 134.533 54.4 135.267 53.6 135.8C52.9333 136.2 51.8 136.4 50.2 136.4C46.3333 136.4 42.7333 136.267 39.4 136C36.0667 135.867 32.4 135.8 28.4 135.8C24.4 135.8 20.6 136 17 136.4C13.4 136.8 9.53333 137 5.4 137ZM53.6 78.6H79.6C81.6 78.6 82.6 78.1333 82.6 77.2C82.6 76.8 82.5333 76.4667 82.4 76.2C82.4 75.9333 82.3333 75.6 82.2 75.2L68.8 30C68.4 28.5333 68 27.8 67.6 27.8C67.3333 27.8 66.8667 28.5333 66.2 30L50.4 75.2C50.1333 75.7333 50 76.2667 50 76.8C50 77.4667 50.3333 77.9333 51 78.2C51.8 78.4667 52.6667 78.6 53.6 78.6Z" fill="#EBE8DD"/>
</svg>
