<svg width="1440" height="1541" viewBox="0 0 1440 1541" fill="none" xmlns="http://www.w3.org/2000/svg">
<g clip-path="url(#clip0_394_7)">
<rect width="1440" height="1541" fill="#EBE8DD"/>
<rect x="-602" y="371" width="2698" height="1081" fill="#F50000"/>
<path d="M765 1454V985H1032.18L1059 1454H765Z" fill="#EBE8DD"/>
<path d="M1137 1015.14H664C664 908.986 824.163 788 930.17 788C1041.18 788 1137.19 949.848 1137 1015.14Z" fill="#211A6A"/>
<path d="M1097 997.645H700C700 908.546 834.429 807 923.403 807C1016.58 807 1097.16 942.842 1097 997.645Z" stroke="#EBE8DD" stroke-width="3"/>
<path d="M1063.24 979.223H740C740 906.679 849.451 824 921.894 824C997.757 824 1063.37 934.602 1063.24 979.223Z" stroke="#EBE8DD" stroke-width="3"/>
<path d="M1138.97 737.229V167H1291.87V737.229L1414 752.935L1207.03 858.524L1010 752.935L1138.97 737.229Z" fill="#EBE8DD" stroke="#F50000" stroke-width="3"/>
<rect y="868" width="481" height="181" fill="#EBE8DD"/>
<rect x="335" y="1145" width="481" height="181" fill="#EBE8DD"/>
<path d="M258.555 431C289.111 420.382 341.055 389.237 304.389 349.598C258.555 300.049 219.696 285.387 239.126 273" stroke="#211A6A" stroke-width="3"/>
<path d="M644.778 442C675.596 430.643 630.362 399.223 593.38 356.824C547.152 303.825 605.585 286.249 625.181 273" stroke="#211A6A" stroke-width="3"/>
<path d="M762.799 642.875L189.132 622.526L190.779 428.954L764.756 412.883L762.799 642.875Z" fill="#EBE8DD"/>
<path d="M79.1799 1093.3L108.693 1452H-12L-29 96.9999L42.1216 104.5C42.1549 104.52 42.188 104.541 42.221 104.561C41.8701 102.459 41.6763 99.9552 41.7205 96.9999L61.0178 104.5L67.8286 115.946H51.9367C51.0286 125.935 41.7205 134.487 37.1799 137.514C36.0448 160.973 34.4556 207.892 37.1799 207.892C40.5853 207.892 59.8826 232.865 61.0178 239.676C61.9259 245.124 48.5313 250.27 41.7205 252.162V411.081H73.5L46.261 422.433V522.324H67.8286L49.6664 550.703V809.514L71.234 833.352H49.6664V844.703C56.8556 846.216 71.234 851.287 71.234 859.46C71.234 867.633 63.6664 866.649 59.8826 865.135V1093.3H79.1799Z" fill="#211A6A"/>
<path d="M671.778 81.4879C623.267 127.161 191.947 102.382 -17.6494 84.2828L-21.6819 126.097L101.084 129.276L421.377 133.208C475.311 141.418 589.842 157.554 616.494 156.416C643.145 155.278 759.16 256.37 813.836 307.058C813.836 307.058 814.318 241.604 821.533 218.393C830.552 189.379 816.53 108.377 800.835 59.903C788.279 21.1239 759.852 7.20131 747.207 5.08749C742.277 11.5239 720.288 35.8149 671.778 81.4879Z" fill="#211A6A"/>
<path d="M164.211 173.636C170.5 151 182.706 131.102 193.058 124.944L193.476 116.812L157.853 114.353C150.58 125.686 134.933 152.687 130.529 170.022C125.024 191.69 140.5 235.501 155.41 247.192C167.851 256.946 193.661 271.738 227.711 280.389C261.762 289.039 290.273 286.078 301.5 287.282C310.482 288.246 376.814 283.668 410.496 287.282C462.261 288.9 570.207 291.609 587.877 289.508C609.964 286.881 678.257 266.842 675.22 237.553C672 206.5 666.402 213.894 657.952 195.271C651.192 180.372 631.242 157.729 622.111 148.269L584.179 141.928C607.582 166.547 647.04 217.965 647 228.5C646.95 241.668 607.387 251.625 576.75 261.966C552.24 270.239 492.424 267.454 465.579 265.028C430.218 261.537 356.867 263.651 350.5 265.028C332.636 268.893 285.182 262.659 260 264.5C234.818 266.341 219.76 251.909 190.297 239.578C157.853 226 156.101 202.83 164.211 173.636Z" fill="#211A6A"/>
<path d="M1016 1029H935V1450H1035L1016 1029Z" stroke="#F50000" stroke-width="3"/>
<path d="M910 1029H792V1450H910V1029Z" stroke="#F50000" stroke-width="3"/>
<circle cx="882.5" cy="1248.5" r="11.5" fill="#F50000"/>
<circle cx="963.5" cy="1248.5" r="11.5" fill="#F50000"/>
</g>
<defs>
<clipPath id="clip0_394_7">
<rect width="1440" height="1541" fill="white"/>
</clipPath>
</defs>
</svg>