<svg width="145" height="134" viewBox="0 0 145 134" fill="none" xmlns="http://www.w3.org/2000/svg">
<path d="M73.4 133.4C68.8667 133.4 63.8667 133.267 58.4 133C53.0667 132.733 48.0667 132.467 43.4 132.2C38.7333 132.067 35.2 132 32.8 132C30.1333 132 27.2 132 24 132C20.8 132.133 17.4667 132.267 14 132.4C10.6667 132.533 7.46667 132.6 4.4 132.6C3.46667 132.6 2.6 132.4 1.8 132C1 131.467 0.6 130.733 0.6 129.8C0.6 128.6 0.933334 127.667 1.6 127C2.4 126.333 3.46667 125.867 4.8 125.6C9.86667 124.533 13.3333 123.2 15.2 121.6C17.0667 119.867 18 116.867 18 112.6V21.8C18 17.5333 17.1333 14.5333 15.4 12.8C13.6667 10.9333 10.1333 9.4 4.8 8.2C3.46667 7.93333 2.4 7.46666 1.6 6.79999C0.933334 6.13332 0.6 5.19999 0.6 3.99999C0.6 3.06666 1 2.33333 1.8 1.8C2.6 1.26666 3.46667 0.999994 4.4 0.999994C7.46667 0.999994 10.6667 1.06666 14 1.19999C17.4667 1.33332 20.8 1.53332 24 1.8C27.3333 1.93333 30.3333 1.99999 33 1.99999C35.1333 1.99999 37.9333 1.93333 41.4 1.8C44.8667 1.53332 48.6 1.33332 52.6 1.19999C56.7333 0.933328 60.6667 0.733331 64.4 0.599999C68.2667 0.333328 71.4 0.199992 73.8 0.199992C83.9333 0.199992 93.2667 1.79999 101.8 4.99999C110.467 8.06666 118 12.5333 124.4 18.4C130.933 24.1333 136 30.9333 139.6 38.8C143.2 46.6667 145 55.3333 145 64.8C145 73.7333 143.4 82.3333 140.2 90.6C137 98.7333 132.333 106.067 126.2 112.6C120.067 119 112.6 124.067 103.8 127.8C95 131.533 84.8667 133.4 73.4 133.4ZM70.4 123.2C79.4667 123.2 87.0667 121 93.2 116.6C99.3333 112.067 103.867 105.867 106.8 98C109.867 90 111.4 80.7333 111.4 70.2C111.4 61.2667 110.4 53.2 108.4 46C106.533 38.6667 103.733 32.4 100 27.2C96.4 22 91.8667 18 86.4 15.2C81.0667 12.2667 75 10.8 68.2 10.8C63.9333 10.8 60.3333 10.9333 57.4 11.2C54.6 11.4667 52.4667 12.1333 51 13.2C49.5333 14.2667 48.8 16 48.8 18.4V105.6C48.8 110 49.6 113.467 51.2 116C52.9333 118.533 55.4 120.4 58.6 121.6C61.9333 122.667 65.8667 123.2 70.4 123.2Z" fill="#EBE8DD"/>
</svg>
