<svg width="121" height="101" viewBox="0 0 121 101" fill="none" xmlns="http://www.w3.org/2000/svg">
<path d="M26.54 100.96C21.5 100.96 16.9733 99.6533 12.96 97.04C9.04 94.3333 5.91333 90.6933 3.58 86.12C1.34 81.4533 0.22 76.18 0.22 70.3C0.22 64.42 1.57333 59.1 4.28 54.34C6.98667 49.4867 10.6733 45.66 15.34 42.86C20.0067 39.9667 25.14 38.52 30.74 38.52C34.7533 38.52 38.3467 39.4067 41.52 41.18C44.6933 42.86 47.2133 45.1467 49.08 48.04C51.04 50.9333 52.02 54.2 52.02 57.84C52.02 61.3867 50.5733 63.16 47.68 63.16H19.68C18.3733 63.16 17.3933 63.5333 16.74 64.28C16.18 65.0267 15.9 66.2867 15.9 68.06C15.9 71.6067 16.6933 74.8733 18.28 77.86C19.8667 80.7533 22.0133 83.04 24.72 84.72C27.4267 86.4 30.5533 87.24 34.1 87.24C36.8067 87.24 39.28 86.7267 41.52 85.7C43.8533 84.6733 46.14 83.2733 48.38 81.5C48.7533 81.22 49.08 80.9867 49.36 80.8C49.7333 80.52 50.06 80.38 50.34 80.38C51.2733 80.38 51.74 80.9867 51.74 82.2C51.74 83.2267 51.3667 84.6267 50.62 86.4C49.6867 88.7333 48.1 91.0667 45.86 93.4C43.7133 95.64 41.0067 97.46 37.74 98.86C34.4733 100.26 30.74 100.96 26.54 100.96ZM19.68 57.28H28.08C30.6933 57.28 32.5133 57.2333 33.54 57.14C34.5667 57.0467 35.5 56.86 36.34 56.58C36.8067 56.3933 37.18 55.9267 37.46 55.18C37.74 54.4333 37.88 53.5933 37.88 52.66C37.88 50.14 36.9933 48.0867 35.22 46.5C33.54 44.9133 31.44 44.12 28.92 44.12C26.96 44.12 25.0933 44.68 23.32 45.8C21.64 46.8267 20.24 48.2267 19.12 50C18.0933 51.68 17.6267 53.4533 17.72 55.32C17.72 56.6267 18.3733 57.28 19.68 57.28ZM86.5016 100.96C83.7949 100.96 81.2749 100.727 78.9416 100.26C76.7016 99.7933 74.6482 99.3267 72.7816 98.86C71.3816 98.3933 70.0749 98.02 68.8616 97.74C67.7416 97.46 66.8082 97.32 66.0616 97.32C65.1282 97.32 64.2416 97.5067 63.4016 97.88C62.5616 98.16 61.7682 98.58 61.0216 99.14C60.1816 99.7933 59.5282 100.12 59.0616 100.12C58.2216 100.12 57.5682 99.9333 57.1016 99.56C56.7282 99.1867 56.5416 98.7667 56.5416 98.3C56.5416 97.46 56.7749 95.8267 57.2416 93.4C57.8016 90.9733 58.0349 87.94 57.9416 84.3L57.3816 22C57.3816 19.5733 57.0082 17.4267 56.2616 15.56C55.6082 13.6 54.1616 12.3867 51.9216 11.92C51.4549 11.8267 51.0349 11.5933 50.6616 11.22C50.3816 10.8467 50.2416 10.3333 50.2416 9.68C50.2416 9.21333 50.3816 8.79333 50.6616 8.42C50.9416 8.04666 51.3149 7.81333 51.7816 7.72C53.8349 7.34666 56.2149 6.74 58.9216 5.9C61.6282 4.96666 64.2416 4.03333 66.7616 3.09999C69.3749 2.07333 71.3816 1.32666 72.7816 0.859995C73.7149 0.486661 74.3682 0.299994 74.7416 0.299994C75.3016 0.299994 75.6749 0.486661 75.8616 0.859995C76.1416 1.14 76.2816 1.51333 76.2816 1.98C76.2816 2.54 76.1416 3.70666 75.8616 5.47999C75.6749 7.25333 75.5816 9.02666 75.5816 10.8V40.76C75.5816 41.9733 75.6749 42.9533 75.8616 43.7C76.0482 44.3533 76.3749 44.68 76.8416 44.68C79.7349 42.72 82.7216 41.2267 85.8016 40.2C88.9749 39.08 91.9616 38.52 94.7616 38.52C99.6149 38.52 104.002 39.78 107.922 42.3C111.842 44.82 114.922 48.2733 117.162 52.66C119.495 57.0467 120.662 61.9933 120.662 67.5C120.662 74.0333 119.215 79.8667 116.322 85C113.428 90.04 109.415 93.96 104.282 96.76C99.2416 99.56 93.3149 100.96 86.5016 100.96ZM89.0216 95.08C91.5416 95.08 93.6882 94.0067 95.4616 91.86C97.2349 89.62 98.5882 86.68 99.5216 83.04C100.548 79.4 101.062 75.4333 101.062 71.14C101.062 67.4067 100.548 63.6267 99.5216 59.8C98.5882 55.9733 97.0482 52.8 94.9016 50.28C92.8482 47.6667 90.1882 46.36 86.9216 46.36C85.2416 46.36 83.2816 46.64 81.0416 47.2C78.8016 47.6667 76.9816 48.46 75.5816 49.58V79.4C75.5816 82.3867 76.1882 85.0933 77.4016 87.52C78.7082 89.9467 80.3882 91.8133 82.4416 93.12C84.4949 94.4267 86.6882 95.08 89.0216 95.08Z" fill="#EBE8DD"/>
</svg>
