<svg width="83" height="129" viewBox="0 0 83 129" fill="none" xmlns="http://www.w3.org/2000/svg">
<path d="M35.36 128.2C24.68 128.2 16.22 126.28 9.98 122.44C3.86 118.6 0.8 113.44 0.8 106.96C0.8 103.6 1.28 100.84 2.24 98.68C3.2 96.52 4.82 94.54 7.1 92.74C9.02 91.3 11.24 89.56 13.76 87.52C16.4 85.48 18.98 83.5 21.5 81.58L29.6 82.84C24.44 85.96 20.78 89.02 18.62 92.02C16.46 95.14 15.38 98.86 15.38 103.18C15.38 108.1 17.48 112.18 21.68 115.42C25.88 118.66 31.1 120.28 37.34 120.28C44.9 120.28 50.66 118.66 54.62 115.42C57.38 113.26 59.48 110.5 60.92 107.14C62.48 103.78 63.26 100.3 63.26 96.7C63.26 94.3 62.42 92.32 60.74 90.76C59.06 89.2 56.36 87.94 52.64 86.98C48.92 86.02 43.88 85.3 37.52 84.82C25.88 83.86 17.72 82.06 13.04 79.42C8.36 76.78 6.02 73 6.02 68.08C6.02 66.88 6.32 65.74 6.92 64.66C7.64 63.58 8.78 62.44 10.34 61.24C12.74 59.32 14.66 57.82 16.1 56.74C17.54 55.66 18.62 54.76 19.34 54.04C20.18 53.2 20.9 52.24 21.5 51.16L28.52 54.22C26 55.18 23.9 56.44 22.22 58C20.54 59.56 19.7 60.94 19.7 62.14C19.7 63.7 20.54 65.08 22.22 66.28C23.9 67.36 26.54 68.2 30.14 68.8C33.74 69.4 38.3 69.94 43.82 70.42C55.58 71.14 64.22 73 69.74 76C75.26 79 78.02 83.26 78.02 88.78C78.02 93.58 76.76 98.26 74.24 102.82C71.84 107.5 68.6 111.76 64.52 115.6C60.44 119.44 55.88 122.5 50.84 124.78C45.8 127.06 40.64 128.2 35.36 128.2ZM37.7 50.62C42.02 50.62 45.5 48.4 48.14 43.96C50.9 39.52 52.28 33.82 52.28 26.86C52.28 23.02 51.56 19.54 50.12 16.42C48.68 13.3 46.76 10.84 44.36 9.04C42.08 7.12 39.5 6.16 36.62 6.16C33.98 6.16 31.52 7.12 29.24 9.04C26.96 10.96 25.16 13.54 23.84 16.78C22.52 19.9 21.86 23.38 21.86 27.22C21.86 31.54 22.52 35.5 23.84 39.1C25.28 42.58 27.2 45.4 29.6 47.56C32.12 49.6 34.82 50.62 37.7 50.62ZM36.26 57.46C31.22 57.46 26.36 56.2 21.68 53.68C17 51.16 13.16 47.8 10.16 43.6C7.16 39.28 5.66 34.54 5.66 29.38C5.66 23.5 7.22 18.4 10.34 14.08C13.46 9.64 17.54 6.22 22.58 3.82C27.74 1.3 33.14 0.0399963 38.78 0.0399963C42.38 0.0399963 45.56 0.519995 48.32 1.47999C51.2 2.32 54.14 3.04 57.14 3.64C59.9 4.36 62.18 4.84 63.98 5.08C65.9 5.2 67.94 5.26 70.1 5.26C71.66 5.26 73.46 5.2 75.5 5.08C77.54 4.84 79.04 4.72 80 4.72C81.68 4.72 82.52 5.8 82.52 7.96C82.52 9.52 81.86 11.02 80.54 12.46C79.82 13.18 79.22 13.54 78.74 13.54H73.88C70.76 13.54 68.9 14.02 68.3 14.98C68.06 15.34 67.82 15.88 67.58 16.6C67.46 17.2 67.34 18.04 67.22 19.12C67.22 20.2 67.22 21.58 67.22 23.26C67.22 29.5 65.78 35.2 62.9 40.36C60.02 45.52 56.24 49.66 51.56 52.78C47 55.9 41.9 57.46 36.26 57.46Z" fill="#F50000"/>
</svg>
