<svg width="140" height="136" viewBox="0 0 140 136" fill="none" xmlns="http://www.w3.org/2000/svg">
<path d="M69.2 135.8C60.1333 135.8 51.4667 134.267 43.2 131.2C34.9333 128 27.6 123.533 21.2 117.8C14.9333 111.933 9.93333 105 6.2 97C2.6 88.8667 0.8 79.8667 0.8 70C0.8 60.9333 2.26667 52.2667 5.2 44C8.26667 35.6 12.7333 28.1333 18.6 21.6C24.6 15.0667 31.9333 9.86666 40.6 5.99999C49.4 2.13333 59.5333 0.199993 71 0.199993C80.0667 0.199993 88.6667 1.79999 96.8 4.99999C105.067 8.06666 112.4 12.5333 118.8 18.4C125.2 24.1333 130.2 31.0667 133.8 39.2C137.533 47.2 139.4 56.1333 139.4 66C139.4 74.9333 137.867 83.6 134.8 92C131.867 100.4 127.4 107.867 121.4 114.4C115.533 120.933 108.2 126.133 99.4 130C90.7333 133.867 80.6667 135.8 69.2 135.8ZM72.6 127C81 127 88 124.867 93.6 120.6C99.3333 116.333 103.6 110.4 106.4 102.8C109.333 95.0667 110.8 86.2 110.8 76.2C110.8 67.6667 109.933 59.4 108.2 51.4C106.467 43.4 103.8 36.2667 100.2 30C96.6 23.6 92.0667 18.5333 86.6 14.8C81.2667 11.0667 74.8667 9.2 67.4 9.2C59 9.2 51.9333 11.3333 46.2 15.6C40.6 19.8667 36.4 25.8 33.6 33.4C30.8 41 29.4 49.8 29.4 59.8C29.4 68.3333 30.2667 76.6 32 84.6C33.7333 92.6 36.3333 99.8 39.8 106.2C43.4 112.6 47.8667 117.667 53.2 121.4C58.6667 125.133 65.1333 127 72.6 127Z" fill="#EBE8DD"/>
</svg>
