<svg width="61" height="80" viewBox="0 0 61 80" fill="none" xmlns="http://www.w3.org/2000/svg">
<path d="M4.28 79.54C3.2 79.54 2.3 79.36 1.58 79C0.98 78.64 0.68 78.1 0.68 77.38C0.68 76.42 1.04 75.76 1.76 75.4C2.6 74.92 3.62 74.5 4.82 74.14C7.34 73.54 9.08 72.7 10.04 71.62C11.12 70.54 11.66 69.1 11.66 67.3V27.7C11.66 24.7 11.24 22.18 10.4 20.14C9.56 17.98 7.76 16.6 5 16C4.52 15.88 4.04 15.58 3.56 15.1C3.2 14.62 3.02 14.02 3.02 13.3C3.02 11.98 3.62 11.14 4.82 10.78C8.18 9.82 11.78 8.5 15.62 6.82C19.46 5.02 22.58 3.46 24.98 2.14C25.7 1.66 26.36 1.3 26.96 1.05999C27.56 0.819994 27.98 0.699994 28.22 0.699994C29.06 0.699994 29.48 1.18 29.48 2.14C29.48 2.62 29.42 3.64 29.3 5.2C29.3 6.76 29.24 8.5 29.12 10.42C29 12.34 28.94 14.2 28.94 16C28.94 16.48 29.06 16.72 29.3 16.72C31.22 14.32 33.32 12.1 35.6 10.06C38 8.02 40.52 6.4 43.16 5.2C45.8 3.87999 48.32 3.21999 50.72 3.21999C53.84 3.21999 56.24 3.87999 57.92 5.2C59.6 6.4 60.44 8.02 60.44 10.06C60.44 11.38 60.02 12.94 59.18 14.74C58.46 16.42 57.44 17.92 56.12 19.24C54.92 20.44 53.6 21.04 52.16 21.04C51.32 21.04 50.42 20.86 49.46 20.5C48.5 20.02 47.48 19.54 46.4 19.06C45.44 18.58 44.42 18.16 43.34 17.8C42.38 17.32 41.42 17.08 40.46 17.08C37.46 17.08 34.7 18.16 32.18 20.32C29.66 22.48 28.4 26.68 28.4 32.92V66.76C28.4 68.68 29.18 70.18 30.74 71.26C32.3 72.34 34.64 73.36 37.76 74.32C39.08 74.68 40.1 75.1 40.82 75.58C41.54 75.94 41.9 76.54 41.9 77.38C41.9 78.82 40.76 79.54 38.48 79.54C34.88 79.54 31.76 79.36 29.12 79C26.6 78.76 23.78 78.64 20.66 78.64C18.62 78.64 16.82 78.7 15.26 78.82C13.7 78.94 12.08 79.06 10.4 79.18C8.72 79.42 6.68 79.54 4.28 79.54Z" fill="#F50000"/>
</svg>
