<svg width="1440" height="894" viewBox="0 0 1440 894" fill="none" xmlns="http://www.w3.org/2000/svg">
<path d="M126.27 244.271L135.329 70L-447 84.1241L-412.79 257.346L126.27 244.271Z" fill="black"/>
<path d="M1848.27 174.271L1857.33 0L1275 14.1241L1309.21 187.346L1848.27 174.271Z" fill="black"/>
<path d="M134.189 640.059L80.6397 406.551L-441 400.802L-404.871 653.134L134.189 640.059Z" fill="white"/>
<path d="M1844.27 547.949L1792.5 387.802L1271 387.802L1305.21 561.024L1844.27 547.949Z" fill="black"/>
<path d="M107.574 861.675L131.421 761.364L-390 764.641L-356.884 892.764L107.574 861.675Z" fill="black"/>
<path d="M152.989 737.523L177.37 659.29L-344 664.641L-311.576 764.224L152.989 737.523Z" fill="black"/>
<path d="M1754.5 709.839L1777.5 574.641L1256 574.641L1290.21 747.863L1754.5 709.839Z" fill="black"/>
<path d="M1696.05 840.086L1720.38 759.51L1199 764.641L1231.5 867.252L1696.05 840.086Z" fill="white"/>
<path d="M122.059 388.008L141.835 266.823L-565.511 261.143L-598.52 405.486L122.059 388.008Z" fill="black"/>
<path d="M1993.06 332.008L2012.83 210.823L1305.49 205.143L1272.48 349.486L1993.06 332.008Z" fill="white"/>
</svg>