<svg width="136" height="141" viewBox="0 0 136 141" fill="none" xmlns="http://www.w3.org/2000/svg">
<path d="M37.2 140.6C36.2667 140.6 35.2667 140.4 34.2 140C33.1333 139.467 32.6 138.733 32.6 137.8C32.6 136.6 33.0667 135.667 34 135C34.9333 134.333 36.0667 133.867 37.4 133.6C42.4667 132.533 46.1333 131.133 48.4 129.4C50.8 127.667 52 124.667 52 120.4V37.8C52 32.6 51.8667 28.8 51.6 26.4C51.3333 23.8667 50.9333 22.2 50.4 21.4C50 20.4667 49.4667 19.8667 48.8 19.6C47.6 18.9333 46 18.6 44 18.6C42.1333 18.4667 40.6 18.4 39.4 18.4H35C30.7333 18.4 26.6667 19.4667 22.8 21.6C19.0667 23.6 16.0667 26.1333 13.8 29.2C13.1333 30.1333 12.1333 31.4667 10.8 33.2C9.6 34.8 8.26667 36.2667 6.8 37.6C5.46667 38.8 4.13333 39.4 2.8 39.4C1.73333 39.4 1 39.0667 0.6 38.4C0.2 37.6 2.83122e-07 36.7333 2.83122e-07 35.8C2.83122e-07 34.2 0.4 32.5333 1.2 30.8C3.73333 25.7333 5.6 21.4 6.8 17.8C8 14.2 8.8 10.0667 9.2 5.39999C9.46667 3.39999 10.0667 2.06666 11 1.4C11.9333 0.599991 13 0.199988 14.2 0.199988C15.1333 0.199988 16.1333 1.06666 17.2 2.79999C18.2667 4.53333 19.4 5.93333 20.6 7C21.9333 8.06666 24.1333 8.86666 27.2 9.39999C30.4 9.93332 33 10.2 35 10.2H110.2C113.533 10.2 116.333 9.86666 118.6 9.19999C121 8.53333 122.8 7.86666 124 7.19999C126.133 5.99999 127.8 4.66666 129 3.2C130.333 1.73333 131.867 0.99999 133.6 0.99999C134.4 0.99999 134.933 1.33332 135.2 1.99999C135.6 2.53332 135.8 3.33332 135.8 4.39999C135.8 4.93333 135.733 5.59999 135.6 6.39999C135.6 7.19999 135.533 7.93332 135.4 8.6C134.733 11.1333 134.067 13.6 133.4 16C132.733 18.2667 132.2 20.4667 131.8 22.6C131.4 24.7333 131.2 26.9333 131.2 29.2V33.2C131.2 35.3333 130.933 37.0667 130.4 38.4C130 39.7333 129.133 40.4 127.8 40.4C126.6 40.4 125.6 39.8 124.8 38.6C124 37.2667 123.133 35.2 122.2 32.4C120.733 27.6 118.533 24.0667 115.6 21.8C112.8 19.5333 108.467 18.4 102.6 18.4H92.2C89.9333 18.4 88.0667 18.9333 86.6 20C85.2667 20.9333 84.2667 22.9333 83.6 26C82.9333 28.9333 82.6 33.4667 82.6 39.6V120.2C82.6 124.2 83.6667 127.133 85.8 129C88.0667 130.733 91.8 132.267 97 133.6C98.3333 134 99.4667 134.467 100.4 135C101.333 135.533 101.8 136.4 101.8 137.6C101.8 138.533 101.4 139.267 100.6 139.8C99.8 140.333 98.8 140.6 97.6 140.6C94.6667 140.6 91.3333 140.467 87.6 140.2C84 140.067 80.3333 139.933 76.6 139.8C73 139.667 69.8667 139.6 67.2 139.6C64.4 139.6 61.2 139.667 57.6 139.8C54.1333 139.933 50.6 140.067 47 140.2C43.5333 140.467 40.2667 140.6 37.2 140.6Z" fill="#EBE8DD"/>
</svg>
