<svg width="69" height="79" viewBox="0 0 69 79" fill="none" xmlns="http://www.w3.org/2000/svg">
<path d="M15.78 78.52C13.26 78.52 10.8 77.68 8.4 76C6 74.44 4.02 72.46 2.46 70.06C0.9 67.54 0.12 65.08 0.12 62.68C0.12 58.72 1.2 55.54 3.36 53.14C5.64 50.74 9.12 48.58 13.8 46.66L31.26 39.28C33.66 38.32 35.1 37.48 35.58 36.76C36.06 35.92 36.36 34.3 36.48 31.9L36.84 20.92C36.96 17.68 36.18 14.98 34.5 12.82C32.82 10.66 30.36 9.58 27.12 9.58C25.44 9.58 23.7 9.94 21.9 10.66C20.22 11.26 18.84 11.98 17.76 12.82C17.16 13.3 16.74 13.96 16.5 14.8C16.38 15.64 16.32 16.54 16.32 17.5C16.32 18.1 16.32 18.82 16.32 19.66C16.44 20.38 16.5 20.98 16.5 21.46C16.5 22.18 15.66 23.08 13.98 24.16C12.42 25.12 10.56 26.02 8.4 26.86C6.36 27.7 4.62 28.12 3.18 28.12C2.46 28.12 1.86 27.94 1.38 27.58C1.02 27.1 0.84 26.5 0.84 25.78C0.84 23.86 1.44 21.88 2.64 19.84C3.96 17.68 5.88 15.52 8.4 13.36C11.28 10.84 14.4 8.62 17.76 6.7C21.24 4.66 24.6 3.1 27.84 2.02C31.2 0.939997 34.14 0.399997 36.66 0.399997C41.7 0.399997 45.78 2.14 48.9 5.61999C52.14 8.98 53.64 13.36 53.4 18.76L52.5 59.44C52.38 62.08 52.92 64.24 54.12 65.92C55.32 67.6 56.82 68.44 58.62 68.44C61.38 68.44 63.54 67.72 65.1 66.28C65.58 65.8 66 65.56 66.36 65.56C66.96 65.56 67.44 65.74 67.8 66.1C68.28 66.46 68.52 66.94 68.52 67.54C68.52 68.98 67.68 70.48 66 72.04C63.96 74.08 61.74 75.64 59.34 76.72C57.06 77.92 54.84 78.52 52.68 78.52C46.68 78.52 41.88 75.28 38.28 68.8H37.74C33.78 72.16 30.06 74.62 26.58 76.18C23.1 77.74 19.5 78.52 15.78 78.52ZM25.14 68.8C27.18 68.8 28.86 68.5 30.18 67.9C31.62 67.18 32.88 66.22 33.96 65.02C34.56 64.42 34.98 63.7 35.22 62.86C35.58 61.9 35.82 60.46 35.94 58.54L36.3 48.28C36.42 47.08 36.36 46.24 36.12 45.76C35.88 45.16 35.4 44.86 34.68 44.86C34.44 44.86 34.08 44.92 33.6 45.04C33.12 45.16 32.46 45.4 31.62 45.76C26.22 47.8 22.44 49.96 20.28 52.24C18.12 54.4 17.04 56.8 17.04 59.44C17.04 62.68 17.88 65.08 19.56 66.64C21.36 68.08 23.22 68.8 25.14 68.8Z" fill="#F50000"/>
</svg>
