<svg width="117" height="133" viewBox="0 0 117 133" fill="none" xmlns="http://www.w3.org/2000/svg">
<path d="M4.4 133C3.2 133 2.2 132.667 1.4 132C0.733334 131.467 0.4 130.8 0.4 130C0.4 128 1.86667 126.6 4.8 125.8C9.33333 124.6 12.5333 123.2 14.4 121.6C16.4 120 17.4 117.067 17.4 112.8V21.8C17.4 17.5333 16.5333 14.4667 14.8 12.6C13.0667 10.6 9.86667 9.13333 5.2 8.2C3.46667 7.79999 2.26667 7.26666 1.6 6.59999C0.933334 5.8 0.6 4.93333 0.6 3.99999C0.6 3.19999 1 2.53333 1.8 1.99999C2.6 1.33333 3.6 0.999994 4.8 0.999994C9.06667 0.999994 12.6 1.13333 15.4 1.39999C18.2 1.66666 20.8 1.93333 23.2 2.19999C25.7333 2.33333 28.6667 2.4 32 2.4C35.0667 2.4 37.8667 2.26666 40.4 1.99999C42.9333 1.59999 45.7333 1.26666 48.8 0.999994C52 0.733331 55.8667 0.599999 60.4 0.599999C76.2667 0.599999 88.2667 2.86666 96.4 7.39999C104.667 11.8 108.8 19.4667 108.8 30.4C108.8 34.5333 107.867 38.4667 106 42.2C104.133 45.8 101.733 48.8 98.8 51.2C96.6667 53.0667 94.4 54.6 92 55.8C89.7333 57 87.1333 58 84.2 58.8C83.6667 58.9333 83.4 59.2667 83.4 59.8C83.4 60.3333 83.6667 60.6667 84.2 60.8C87.6667 61.6 91.2667 62.6667 95 64C98.7333 65.2 102.2 67 105.4 69.4C108.733 71.8 111.333 74.9333 113.2 78.8C115.2 82.5333 116.2 87.3333 116.2 93.2C116.2 100.667 115 106.6 112.6 111C110.333 115.267 107.533 118.533 104.2 120.8C101 123.067 98 124.933 95.2 126.4C90.8 128.533 85.8 130.133 80.2 131.2C74.6 132.267 67.9333 132.8 60.2 132.8C55.8 132.8 51.3333 132.667 46.8 132.4C42.4 132.133 37.7333 132 32.8 132C30 132 26.9333 132.067 23.6 132.2C20.2667 132.333 16.9333 132.467 13.6 132.6C10.4 132.867 7.33333 133 4.4 133ZM60.4 121.8C64.4 121.8 68.1333 120.6 71.6 118.2C75.2 115.8 78 112.6 80 108.6C82.1333 104.467 83.2 99.8 83.2 94.6C83.2 90.0667 82.6 86.2667 81.4 83.2C80.3333 80.1333 79 77.6667 77.4 75.8C75.9333 73.9333 74.5333 72.5333 73.2 71.6C72.1333 70.6667 70.2 69.7333 67.4 68.8C64.7333 67.7333 61.4 67.2 57.4 67.2C55.1333 67.2 53 67.8 51 69C49.1333 70.0667 48.2 71.6667 48.2 73.8V109C48.2 113.4 49.2667 116.667 51.4 118.8C53.5333 120.8 56.5333 121.8 60.4 121.8ZM56.2 58.2C59.4 58.2 62.3333 57.8667 65 57.2C67.6667 56.4 70.4 54.9333 73.2 52.8C74.1333 51.8667 75.4 50 77 47.2C78.7333 44.2667 79.6 40.0667 79.6 34.6C79.6 29 78.8667 24.3333 77.4 20.6C75.9333 16.8667 73.6667 14.0667 70.6 12.2C67.6667 10.3333 63.7333 9.39999 58.8 9.39999C55.0667 9.39999 52.3333 10.1333 50.6 11.6C49 12.9333 48.2 15 48.2 17.8V51.2C48.2 53.8667 49.1333 55.7333 51 56.8C52.8667 57.7333 54.6 58.2 56.2 58.2Z" fill="#EBE8DD"/>
</svg>
