<svg width="89" height="131" viewBox="0 0 89 131" fill="none" xmlns="http://www.w3.org/2000/svg">
<path d="M59.26 130.42C59.02 130.42 58.6 130.12 58 129.52C57.4 128.92 57.1 128.5 57.1 128.26C57.22 126.82 57.4 125.08 57.64 123.04C57.88 121 58 119.26 58 117.82V116.74C55.96 119.86 52.9 122.8 48.82 125.56C44.86 128.2 40.06 129.52 34.42 129.52C27.58 129.52 21.64 127.78 16.6 124.3C11.56 120.7 7.6 116.08 4.72 110.44C1.96 104.8 0.58 98.8 0.58 92.44C0.58 85.12 2.26 78.34 5.62 72.1C8.98 65.86 13.78 60.88 20.02 57.16C26.26 53.32 33.58 51.4 41.98 51.4C44.14 51.4 46.36 51.64 48.64 52.12C51.04 52.48 52.9 52.9 54.22 53.38C55.54 53.74 56.32 53.92 56.56 53.92C57.4 53.92 57.82 52.66 57.82 50.14V26.2C57.82 21.52 57.1 18.28 55.66 16.48C54.22 14.68 52.12 13.54 49.36 13.06C48.16 12.82 47.56 11.98 47.56 10.54C47.56 9.34 48.1 8.56 49.18 8.2C54.22 7 58.54 5.73999 62.14 4.41999C65.74 3.09999 68.62 2.01999 70.78 1.17999C71.62 0.699995 72.28 0.459998 72.76 0.459998C73.24 0.339993 73.6 0.27999 73.84 0.27999C74.8 0.27999 75.28 0.759991 75.28 1.71999C75.28 2.08 75.22 3.04 75.1 4.6C74.98 6.15999 74.8 8.37999 74.56 11.26C74.32 14.14 74.2 17.68 74.2 21.88L73.84 106.66C73.84 110.74 74.14 113.68 74.74 115.48C75.34 117.28 76.36 118.18 77.8 118.18C78.4 118.18 79.3 118.12 80.5 118C81.7 117.88 83.32 117.76 85.36 117.64C87.28 117.52 88.24 118.12 88.24 119.44C88.24 120.28 87.94 121.12 87.34 121.96C86.74 122.68 86.14 123.04 85.54 123.04C81.82 123.52 78.04 124.24 74.2 125.2C70.48 126.16 66.52 127.54 62.32 129.34C61.36 129.82 60.7 130.12 60.34 130.24C59.98 130.36 59.62 130.42 59.26 130.42ZM41.8 119.08C44.44 119.08 47.2 118.42 50.08 117.1C53.08 115.66 55.6 113.8 57.64 111.52V76.42C57.64 73.66 56.74 70.9 54.94 68.14C53.26 65.26 50.92 62.98 47.92 61.3C44.92 59.5 41.5 58.6 37.66 58.6C34.9 58.6 31.96 59.56 28.84 61.48C25.72 63.28 23.08 66.34 20.92 70.66C18.76 74.98 17.68 80.8 17.68 88.12C17.68 94.24 18.52 99.34 20.2 103.42C21.88 107.38 23.98 110.5 26.5 112.78C29.14 115.06 31.84 116.68 34.6 117.64C37.36 118.6 39.76 119.08 41.8 119.08Z" fill="#F50000"/>
</svg>
