<svg width="103" height="134" viewBox="0 0 103 134" fill="none" xmlns="http://www.w3.org/2000/svg">
<path d="M4.6 133.6C3.53333 133.6 2.6 133.4 1.8 133C1 132.467 0.6 131.733 0.6 130.8C0.6 128.667 2 127.267 4.8 126.6C9.86667 125.533 13.3333 124.2 15.2 122.6C17.0667 120.867 18 117.8 18 113.4V23.8C18 19.2667 17.2 16 15.6 14C14 11.8667 10.8 10.2667 6 9.2C4.26667 8.79999 3.06667 8.26666 2.4 7.59999C1.73333 6.8 1.4 5.93333 1.4 4.99999C1.4 4.19999 1.8 3.53333 2.6 2.99999C3.4 2.33333 4.46667 1.99999 5.8 1.99999C9 1.99999 12.3333 2.06666 15.8 2.19999C19.2667 2.33332 22.6667 2.53332 26 2.8C29.3333 2.93333 32.5333 2.99999 35.6 2.99999C40.8 2.99999 46.4667 2.99999 52.6 2.99999C58.8667 2.99999 64.8667 2.99999 70.6 2.99999C76.0667 2.99999 81 2.66666 85.4 1.99999C89.9333 1.2 93.6 0.799997 96.4 0.799997C97.4667 0.799997 98.5333 1.06666 99.6 1.6C100.667 2.13333 101.267 3.13332 101.4 4.6C101.667 7.66666 101.867 10.8667 102 14.2C102.133 17.5333 102.2 20.7333 102.2 23.8C102.333 26.8667 102.4 29.4667 102.4 31.6C102.4 34.2667 101.6 35.6 100 35.6C99.3333 35.6 98.5333 35.3333 97.6 34.8C96.8 34.2667 96.2667 33.4667 96 32.4C95.0667 29.0667 94.0667 26.1333 93 23.6C91.9333 20.9333 90.5333 18.7333 88.8 17C87.0667 15.1333 85 13.8 82.6 13C80.3333 12.2 77.6 11.8 74.4 11.8H59.4C56.0667 11.8 53.4667 12.6667 51.6 14.4C49.7333 16 48.8 18.2 48.8 21C48.8 23.4 48.8 26.2 48.8 29.4C48.8 32.6 48.8 35.4667 48.8 38C48.8 40.9333 48.8 44.1333 48.8 47.6C48.8 51.0667 48.8 54.2667 48.8 57.2C48.8 58.9333 49.2 60.2 50 61C50.8 61.6667 51.9333 62 53.4 62C56.7333 62 60.0667 62 63.4 62C66.7333 62 69.8667 62 72.8 62C76.2667 62 78.8 61 80.4 59C82 56.8667 83.4 54.4 84.6 51.6C85.1333 50.5333 85.7333 49.6667 86.4 49C87.2 48.3333 87.9333 48 88.6 48C89.2667 48 89.8667 48.4 90.4 49.2C91.0667 50 91.3333 51.0667 91.2 52.4C90.9333 55.2 90.6667 57.8667 90.4 60.4C90.2667 62.8 90.2 64.9333 90.2 66.8C90.2 69.3333 90.2667 71.5333 90.4 73.4C90.5333 75.1333 90.7333 77.5333 91 80.6C91.1333 82.3333 91 83.6667 90.6 84.6C90.2 85.4 89.6667 85.8 89 85.8C87.9333 85.8 86.9333 85.3333 86 84.4C85.2 83.3333 84.6 82.2 84.2 81C83.1333 77 81.8 74.3333 80.2 73C78.6 71.5333 76.6 70.8 74.2 70.8C72.7333 70.8 71.1333 70.8 69.4 70.8C67.8 70.8 66.2667 70.8 64.8 70.8C62.9333 70.8 60.9333 70.8 58.8 70.8C56.8 70.8 54.8667 70.8667 53 71C51.5333 71 50.4 71.4 49.6 72.2C48.9333 73 48.6 74.1333 48.6 75.6C48.6 81.6 48.6 87.8667 48.6 94.4C48.7333 100.933 48.8667 107.2 49 113.2C49 117.467 50.1333 120.467 52.4 122.2C54.6667 123.933 58.6 125.4 64.2 126.6C65.5333 126.867 66.5333 127.333 67.2 128C68 128.533 68.4 129.4 68.4 130.6C68.4 131.533 68.0667 132.267 67.4 132.8C66.8667 133.333 66 133.6 64.8 133.6C61.8667 133.6 58.4667 133.467 54.6 133.2C50.7333 133.067 46.9333 132.933 43.2 132.8C39.4667 132.667 36.2667 132.6 33.6 132.6C30.9333 132.6 27.9333 132.667 24.6 132.8C21.2667 132.933 17.8667 133.067 14.4 133.2C10.9333 133.467 7.66667 133.6 4.6 133.6Z" fill="#EBE8DD"/>
</svg>
