<svg width="1440" height="1293" viewBox="0 0 1440 1293" fill="none" xmlns="http://www.w3.org/2000/svg">
<path d="M1757.39 347.715L1643.87 193.957L-472.221 114.471L-557.219 289.643L1757.39 347.715Z" fill="white"/>
<path d="M1675.53 531.877L1560.89 390.73L-554.35 301.657L-637.918 460.784L1675.53 531.877Z" fill="white"/>
<path d="M1676.77 682.104L1558.05 528.917L-559.673 527.324L-638.639 709.93L1676.77 682.104Z" fill="white"/>
<path d="M1595.07 1106.99L1484.89 915.73L-633.747 864.756L-723 1087.65L1595.07 1106.99Z" fill="white"/>
<path d="M138.269 883.044L147.328 708.773L-435.001 722.897L-400.79 896.119L138.269 883.044Z" fill="black"/>
<path d="M1867.27 449.044L1876.33 274.773L1294 288.897L1328.21 462.119L1867.27 449.044Z" fill="black"/>
<path d="M199.27 412.044L208.328 237.773L-374 251.897L-339.79 425.119L199.27 412.044Z" fill="black"/>
<path d="M1903.42 861.811L1914.33 763.773L1332 777.897L1364.36 874.886L1903.42 861.811Z" fill="black"/>
<path d="M1865.42 973.811L1876.33 875.773L1294 889.897L1326.36 986.886L1865.42 973.811Z" fill="black"/>
</svg>
