<svg xmlns="http://www.w3.org/2000/svg" width="295" height="117" viewBox="0 0 295 117" fill="none">
<path fill-rule="evenodd" clip-rule="evenodd" d="M32.2853 0.457849C29.8853 1.21875 27.5677 3.6324 26.7567 6.2156C26.2316 7.88834 26.1544 9.05933 26.2796 13.4524C26.4937 20.9784 27.0646 22.2962 33.7779 30.765C35.8769 33.413 38.0859 36.5644 38.6869 37.7685C39.7136 39.8262 39.7802 40.189 39.7957 43.8223C39.8157 48.5348 39.3792 49.5394 37.3146 49.5311C34.7174 49.5204 34.4781 48.8543 34.4781 41.633V35.7518H29.996H25.5138V42.1102C25.5138 50.944 26.1365 53.4145 28.9751 55.843C30.9889 57.566 33.8572 58.2794 37.9801 58.0833C46.3569 57.6846 49.7092 52.8797 49.2113 41.9855C48.9031 35.2408 48.0611 33.4433 40.9376 24.3218C35.6707 17.5778 35.387 17.0123 35.2229 12.9328C35.0608 8.89978 35.5018 7.83493 37.3305 7.84354C37.9425 7.84665 38.64 7.97381 38.8803 8.12647C39.6605 8.62133 39.9946 10.6783 39.9946 14.9866V19.2105H44.132H48.2694V13.1602C48.2694 6.36896 47.977 4.68622 46.4817 2.87322C44.6271 0.624295 43.177 0.119786 38.2707 0.017092C35.1315 -0.0487286 33.5058 0.070851 32.2853 0.457849ZM0 28.8596V57.4623H4.30977H8.61953V45.0563V32.6503H11.5502H14.4808V45.0563V57.4623H18.965H23.4493L23.361 28.9458L23.2727 0.429246L18.8768 0.332755L14.4808 0.236264V11.8052V23.3738L11.6364 23.2735L8.79192 23.1735L8.70124 11.7152L8.61022 0.256941H4.30528H0V28.8596ZM51.6024 0.486796C51.4758 0.612923 51.3724 13.4841 51.3724 29.0895V57.4623H61.5434H71.7145V53.1547V48.847H66.0256H60.3367V40.5764V32.3057H64.6465H68.9562V27.9981V23.6905H64.6465H60.3367V16.2813V8.87221H65.8532H71.3697V4.56457V0.256941H61.601C56.228 0.256941 51.7286 0.360324 51.6024 0.486796ZM86.7463 1.20462C86.6401 1.72567 86.2453 4.71103 85.8695 7.83837C84.9203 15.7324 83.0019 31.4232 81.3666 44.6662C80.6092 50.801 79.9892 56.19 79.9892 56.6414C79.9892 57.4582 80.0096 57.4623 83.9053 57.4623H87.8216L88.2302 53.2408C88.455 50.9188 88.727 48.5152 88.8346 47.8994L89.0304 46.7794H92.0238H95.0176L95.4492 51.1732C95.6864 53.5896 95.9636 55.9936 96.0647 56.5146L96.2488 57.4623H100.483C104.681 57.4623 104.717 57.4558 104.595 56.6869C104.527 56.2606 102.921 43.8933 101.027 29.2042C99.1322 14.5152 97.4955 1.99309 97.3897 1.37693L97.1969 0.256941H92.0683H86.9397L86.7463 1.20462ZM105.848 28.8286V57.4623H110.33H114.812V44.6642V31.8664L116.795 32.099C117.885 32.2268 119.01 32.5635 119.294 32.8471C119.726 33.2775 119.841 35.2604 119.989 44.8096C120.086 51.1053 120.297 56.5274 120.457 56.8592C120.711 57.3879 121.301 57.4623 125.229 57.4623C129.358 57.4623 129.693 57.4147 129.475 56.8592C128.815 55.1799 128.607 51.4957 128.605 41.4848C128.603 31.0334 128.569 30.4431 127.892 29.2394C127.501 28.544 126.745 27.6817 126.212 27.324L125.244 26.6734L126.283 25.7991C128.375 24.0402 128.588 22.9881 128.594 14.386C128.597 10.0897 128.441 6.06087 128.243 5.35063C127.754 3.58864 126.338 2.0117 124.477 1.15672C123.055 0.502993 122.149 0.427868 114.381 0.316903L105.848 0.195255V28.8286ZM130.327 4.56457V8.87221H133.948H137.568V33.1673V57.4623H141.877H146.187V33.1673V8.87221H149.807H153.428V4.56457V0.256941H141.877H130.327V4.56457ZM168.424 0.687704C168.339 0.924796 167.797 4.99534 167.218 9.73373C166.639 14.4721 165.786 21.4505 165.322 25.2412C164.857 29.0319 163.858 37.2509 163.1 43.5056C162.342 49.7603 161.639 55.4594 161.536 56.17L161.349 57.4623H165.318C167.502 57.4623 169.302 57.3458 169.32 57.2038C169.337 57.0619 169.609 54.6968 169.923 51.9485L170.494 46.9517L173.481 46.8524L176.468 46.7535L176.653 47.714C176.756 48.2426 177.023 50.6521 177.247 53.0685L177.655 57.4623H181.918C185.523 57.4623 186.182 57.3806 186.182 56.933C186.182 56.6418 185.412 50.5549 184.472 43.407C183.531 36.2588 181.887 23.7425 180.819 15.5928C179.751 7.44311 178.805 0.658757 178.716 0.516088C178.628 0.373419 176.31 0.256941 173.566 0.256941C169.886 0.256941 168.536 0.369973 168.424 0.687704ZM187.561 28.8596V57.4623H191.523H195.484L195.574 41.9634L195.663 26.4646L197.447 33.4343C198.428 37.2678 200.196 44.242 201.375 48.9332L203.518 57.4623H207.09H210.661V28.8596V0.256941H206.696H202.731L202.701 14.989L202.671 29.7211L201.54 25.2412C200.918 22.7772 199.287 16.148 197.915 10.5091L195.422 0.256941H191.491H187.561V28.8596ZM213.764 28.8496V57.5061L222.298 57.3979L230.831 57.29L232.496 56.312C234.471 55.1513 235.984 52.9496 236.529 50.4398C236.794 49.2196 236.878 42.1881 236.802 27.6535L236.692 6.63224L235.834 4.95226C234.853 3.0314 233.273 1.5992 231.421 0.949264C230.566 0.649452 227.424 0.449578 221.953 0.346884L213.764 0.193532V28.8496ZM119.263 9.03796C119.725 9.50043 119.811 10.5932 119.811 15.9801C119.811 22.2834 119.8 22.3827 118.997 23.0319C118.444 23.4796 117.643 23.6905 116.498 23.6905H114.812V15.8885V8.08649L116.763 8.28775C117.848 8.39975 118.958 8.73298 119.263 9.03796ZM226.121 8.55999C226.937 8.84395 227.293 9.24645 227.57 10.1969C227.816 11.0388 227.903 17.4289 227.833 29.4534C227.73 47.0695 227.713 47.4648 227.021 48.1564C226.575 48.6017 225.65 48.9418 224.521 49.0755L222.729 49.2878V28.7352V8.18299H223.884C224.519 8.18299 225.526 8.35253 226.121 8.55999ZM92.9013 27.6535C93.3861 32.2023 93.8667 36.4283 93.9694 37.0441L94.1566 38.1641H91.9614H89.7665L90.012 36.0103C90.1468 34.8259 90.614 30.4552 91.0495 26.2978C91.4853 22.1404 91.8821 18.8838 91.9311 19.061C91.9804 19.2381 92.4169 23.1046 92.9013 27.6535ZM175.472 37.2164C175.493 38.1493 175.461 38.1641 173.386 38.1641H171.278L171.478 36.6995C171.588 35.8938 172.003 32.0559 172.4 28.1704C172.798 24.2849 173.217 20.7182 173.332 20.2444C173.511 19.5017 175.41 34.5588 175.472 37.2164ZM56.8889 58.0078C51.5744 58.9479 49.0658 61.4953 48.2408 66.7895C47.8301 69.4261 48.0177 74.2659 48.6383 77.0379C49.2554 79.7958 51.1038 82.9077 55.3708 88.3739C57.7084 91.3686 60.0536 94.5941 60.5822 95.5418C61.4979 97.1832 61.5434 97.4799 61.5434 101.794C61.5434 105.764 61.4624 106.413 60.8866 107.049C59.9278 108.109 58.1663 108.021 57.2589 106.867C56.5983 106.028 56.5441 105.508 56.5441 99.9752V93.991H52.0327H47.5215L47.6391 101.486C47.7484 108.436 47.8146 109.107 48.549 110.705C49.9509 113.755 51.8992 115.254 55.4405 116.004C58.7538 116.706 62.8398 116.345 65.4143 115.124C69.7068 113.088 71.7504 107.495 71.1991 99.2905C70.7939 93.2615 69.964 91.5677 62.9715 82.4993C60.948 79.8747 58.9104 77.0765 58.4442 76.2808C56.8424 73.5494 56.6382 67.2727 58.1156 66.1927C58.9314 65.5965 60.0333 65.6079 60.8742 66.2213C61.4717 66.6572 61.5617 67.2747 61.7158 71.9935L61.8882 77.2774L66.1118 77.3743L70.3354 77.4711L70.3271 71.5159C70.3223 68.2403 70.1588 64.8628 69.9637 64.0099C69.3407 61.2858 67.4354 59.2522 64.7837 58.4813C63.4511 58.094 58.187 57.778 56.8889 58.0078ZM93.4081 58.1322C89.2442 58.8969 86.4332 61.7851 85.5054 66.2519C85.2589 67.4388 85.1682 74.9823 85.2344 88.8522C85.3416 111.411 85.2289 110.08 87.2938 113.169C88.5891 115.106 91.1733 116.391 93.7774 116.391C96.3477 116.391 98.9398 114.879 100.705 112.35L101.961 110.549L102.612 113.039L103.262 115.529L105.762 115.631L108.261 115.732V98.3138V80.8958H102.228H96.194V85.3758V89.8557H98.0903H99.9866V97.4599C99.9866 105.16 99.8604 106.051 98.6374 106.989C97.7893 107.64 95.9361 107.518 95.1789 106.761C94.81 106.392 94.4146 105.578 94.2997 104.952C94.1853 104.325 94.1377 95.6958 94.1946 85.7759L94.2977 67.7393L95.1117 67.0807C96.286 66.1306 97.7196 66.2337 98.5823 67.3302C99.2177 68.1376 99.297 68.7104 99.297 72.4994V76.7605H103.646H107.995L107.846 70.816C107.731 66.2109 107.564 64.5651 107.107 63.5116C105.474 59.7516 103.004 58.2463 98.0596 57.9971C96.3698 57.912 94.2766 57.9727 93.4081 58.1322ZM153.248 58.1257C149.851 58.6671 147.531 60.416 146.129 63.493C144.963 66.0507 144.793 73.1176 145.8 77.0989C146.723 80.749 147.682 82.3649 152.753 88.8219C158.014 95.5197 158.662 96.8354 158.859 101.208C159.04 105.24 158.541 107.082 157.134 107.576C155.877 108.017 154.428 107.49 153.871 106.391C153.575 105.807 153.436 103.704 153.433 99.7633L153.428 93.991H148.945H144.463V99.9583C144.463 106.74 144.824 109.299 146.118 111.686C147.628 114.474 150.301 115.907 154.677 116.277C161.704 116.871 166.228 113.927 167.735 107.779C168.218 105.809 168.306 104.342 168.173 100.43C167.927 93.216 167.39 92.0164 160.341 82.9635C154.784 75.8259 154.29 74.8024 154.29 70.4417C154.29 67.2951 154.348 67.0046 155.104 66.3925C156.133 65.5582 156.927 65.5579 157.958 66.3908C158.738 67.0218 158.776 67.2641 158.883 72.2599L158.994 77.4704L163.193 77.3739L167.391 77.2774L167.371 70.9021C167.352 65.0496 167.286 64.3814 166.567 62.7514C165.632 60.632 164.802 59.7943 162.724 58.8759C160.934 58.084 155.974 57.6915 153.248 58.1257ZM178.941 58.0223C175.116 58.7632 172.923 60.4015 171.387 63.6653L170.494 65.5607V87.1336V108.707L171.704 111.084C173.758 115.122 177.005 116.617 183.09 116.326C188.124 116.086 190.796 114.321 192.485 110.122C193.154 108.456 193.232 107.497 193.351 99.4187L193.482 90.5449H189.171H184.86L184.745 98.329L184.63 106.113L183.663 106.944C181.893 108.465 179.896 107.681 179.462 105.296C179.348 104.67 179.301 95.9929 179.357 86.0147C179.454 68.7359 179.49 67.8382 180.115 67.1472C180.823 66.3664 182.351 66.193 183.431 66.7709C184.466 67.324 184.799 69.3152 184.801 74.9513L184.803 80.2066H189.146H193.49L193.357 72.7113C193.234 65.744 193.168 65.0875 192.414 63.3937C191.445 61.2182 189.21 59.1337 187.2 58.532C185.665 58.0726 180.37 57.7456 178.941 58.0223ZM230.631 58.1322C226.059 58.9717 223.272 62.1321 222.408 67.4581C221.938 70.3504 221.929 103.295 222.397 106.569C223.024 110.956 225.597 114.596 228.822 115.66C231.176 116.437 236.131 116.553 238.429 115.885C242.264 114.77 244.163 112.803 245.423 108.637C246.111 106.364 246.449 72.8261 245.831 68.1862C245.161 63.1532 243.415 60.4001 239.915 58.8563C238.081 58.0475 233.177 57.6649 230.631 58.1322ZM257.158 58.136C252.695 58.951 250.046 61.7437 248.946 66.7919C248.652 68.1432 248.569 74.0663 248.649 88.1327C248.751 106.06 248.81 107.738 249.396 109.298C251.388 114.6 255.142 116.724 261.789 116.31C266.473 116.018 269.196 114.426 270.954 110.953C272.274 108.343 272.377 106.607 272.377 86.8731C272.377 70.6423 272.295 67.4119 271.839 65.6527C270.925 62.1266 269.106 59.9032 266.266 58.8411C264.165 58.0557 259.553 57.6987 257.158 58.136ZM0 87.104V115.756L8.18855 115.643C15.9558 115.535 16.4612 115.488 18.0152 114.723C19.9394 113.776 21.4623 112.052 22.3094 109.862C22.8587 108.442 22.9279 106.39 23.0348 88.305C23.119 74.0808 23.0366 67.6438 22.7487 65.9807C22.2149 62.8972 20.7669 60.7258 18.4565 59.5444C16.7819 58.6881 16.5554 58.666 8.37163 58.5602L0 58.4517V87.104ZM25.8586 87.0988V115.702H36.0296H46.2007V111.222V106.742H40.5118H34.8229V98.6433V90.5449H39.1327H43.4424V86.065V81.585H39.1327H34.8229V74.3482V67.1114H40.3394H45.8559V62.8038V58.4961H35.8572H25.8586V87.0988ZM73.4384 87.0988V115.702H77.9206H82.4027V87.0988V58.4961H77.9206H73.4384V87.0988ZM111.104 87.0127L111.192 115.529L115.243 115.626L119.294 115.723L119.326 100.119L119.357 84.5142L122.749 97.9541C124.615 105.346 126.402 112.363 126.721 113.548L127.301 115.702H130.883H134.465V87.0988V58.4961H130.5H126.535L126.499 73.2282C126.468 85.973 126.402 87.7512 126.011 86.4096C125.763 85.5567 124.118 78.9271 122.357 71.6775L119.155 58.4961H115.086H111.015L111.104 87.0127ZM195.836 87.0988V115.702H200.318H204.8V103.123V90.5449H207.731H210.661V103.123V115.702H214.971H219.281V87.0988V58.4961H214.971H210.661V69.8683V81.2404H207.731H204.8V69.8683V58.4961H200.318H195.836V87.0988ZM275.135 87.1043V115.712L284.875 115.621L294.616 115.529L294.712 111.135L294.809 106.742H289.454H284.1V82.6189V58.4961H279.618H275.135V87.1043ZM13.2389 67.5673C13.954 68.5274 13.9636 68.7845 13.9636 86.7542C13.9636 104.724 13.954 104.981 13.2389 105.941C12.6155 106.778 12.2418 106.928 10.5669 107.017L8.61953 107.121V86.7542V66.3877L10.5669 66.4911C12.2418 66.58 12.6155 66.7306 13.2389 67.5673ZM236.019 67.334L236.865 68.2459V86.7821C236.865 97.6842 236.73 105.674 236.536 106.181C235.822 108.06 233.008 108.234 231.813 106.474C231.22 105.601 231.168 104.413 231.062 89.3388C230.932 70.6619 231.051 68.4116 232.228 67.2341C233.347 66.1169 234.929 66.1586 236.019 67.334ZM262.02 66.7596C263.327 67.4588 263.413 68.7231 263.408 87.2363C263.402 106.513 263.412 106.405 261.621 107.409C260.328 108.135 258.927 107.585 258.151 106.049C257.589 104.938 257.55 103.445 257.634 86.5233L257.724 68.2004L258.56 67.3113C259.44 66.3757 260.875 66.1468 262.02 66.7596Z" fill="#EBE8DD"/>
</svg>