<svg width="135" height="80" viewBox="0 0 135 80" fill="none" xmlns="http://www.w3.org/2000/svg">
<path d="M3.74 79.54C2.78 79.54 1.94 79.36 1.22 79C0.5 78.76 0.14 78.22 0.14 77.38C0.14 76.54 0.5 75.88 1.22 75.4C2.06 74.92 3.08 74.5 4.28 74.14C5.96 73.54 7.58 72.88 9.14 72.16C10.82 71.32 11.66 69.7 11.66 67.3V27.7C11.66 24.7 11.3 22.12 10.58 19.96C9.86 17.68 8.12 16.3 5.36 15.82C4.88 15.7 4.46 15.46 4.1 15.1C3.74 14.74 3.56 14.14 3.56 13.3C3.56 11.86 4.1 11.02 5.18 10.78C8.3 9.94 11.06 9.04 13.46 8.08C15.86 7.12 18.08 6.1 20.12 5.02C22.16 3.82 24.32 2.56 26.6 1.24C26.84 1.12 27.08 0.999996 27.32 0.879997C27.68 0.639997 28.04 0.519997 28.4 0.519997C29.24 0.519997 29.66 0.999996 29.66 1.95999C29.66 2.92 29.48 4.66 29.12 7.18C28.88 9.58 28.76 11.62 28.76 13.3C28.76 14.5 28.88 15.22 29.12 15.46H29.48C32.48 12.46 36.2 9.7 40.64 7.18C45.2 4.66 50.66 3.4 57.02 3.4C61.1 3.4 64.64 4.48 67.64 6.64C70.64 8.68 73.04 11.92 74.84 16.36H75.38C79.1 12.52 83.36 9.4 88.16 7C92.96 4.6 98.24 3.4 104 3.4C107.96 3.4 111.32 4.54 114.08 6.82C116.84 9.1 118.94 12.16 120.38 16C121.94 19.84 122.72 24.04 122.72 28.6V67.48C122.72 69.88 123.5 71.44 125.06 72.16C126.62 72.88 128.3 73.54 130.1 74.14C131.3 74.5 132.26 74.92 132.98 75.4C133.7 75.88 134.06 76.54 134.06 77.38C134.06 78.1 133.76 78.64 133.16 79C132.68 79.36 131.84 79.54 130.64 79.54C128.24 79.54 126.26 79.42 124.7 79.18C123.14 79.06 121.64 78.94 120.2 78.82C118.76 78.7 116.96 78.64 114.8 78.64C112.76 78.64 110.96 78.7 109.4 78.82C107.96 78.94 106.46 79.06 104.9 79.18C103.34 79.42 101.36 79.54 98.96 79.54C98 79.54 97.16 79.36 96.44 79C95.84 78.64 95.54 78.1 95.54 77.38C95.54 76.42 95.9 75.76 96.62 75.4C97.34 74.92 98.3 74.5 99.5 74.14C101.3 73.66 102.86 73.06 104.18 72.34C105.5 71.5 106.16 70 106.16 67.84V30.22C106.16 27.34 105.56 24.7 104.36 22.3C103.28 19.78 101.78 17.8 99.86 16.36C97.94 14.8 95.78 14.02 93.38 14.02C90.86 14.02 88.46 14.38 86.18 15.1C83.9 15.82 81.68 17.02 79.52 18.7C76.76 20.86 75.38 24.52 75.38 29.68V67.48C75.38 69.88 76.1 71.5 77.54 72.34C79.1 73.06 80.78 73.66 82.58 74.14C83.66 74.5 84.56 74.92 85.28 75.4C86.12 75.88 86.54 76.54 86.54 77.38C86.54 78.1 86.24 78.64 85.64 79C85.04 79.36 84.2 79.54 83.12 79.54C80.72 79.54 78.74 79.42 77.18 79.18C75.62 79.06 74.12 78.94 72.68 78.82C71.24 78.7 69.44 78.64 67.28 78.64C65.24 78.64 63.44 78.7 61.88 78.82C60.44 78.94 58.94 79.06 57.38 79.18C55.82 79.42 53.84 79.54 51.44 79.54C50.6 79.54 49.82 79.36 49.1 79C48.38 78.64 48.02 78.1 48.02 77.38C48.02 76.42 48.44 75.76 49.28 75.4C50.12 74.92 51.02 74.5 51.98 74.14C53.78 73.66 55.34 73.06 56.66 72.34C58.1 71.5 58.82 70 58.82 67.84V30.22C58.82 27.34 58.22 24.7 57.02 22.3C55.94 19.9 54.44 17.92 52.52 16.36C50.6 14.8 48.44 14.02 46.04 14.02C43.64 14.02 41.24 14.38 38.84 15.1C36.56 15.82 34.34 17.02 32.18 18.7C29.54 20.62 28.22 24.22 28.22 29.5V67.48C28.22 69.76 28.88 71.32 30.2 72.16C31.52 72.88 33.08 73.54 34.88 74.14C35.84 74.5 36.74 74.92 37.58 75.4C38.42 75.76 38.84 76.42 38.84 77.38C38.84 78.1 38.48 78.64 37.76 79C37.16 79.36 36.38 79.54 35.42 79.54C33.02 79.54 31.04 79.42 29.48 79.18C27.92 79.06 26.48 78.94 25.16 78.82C23.84 78.7 22.1 78.64 19.94 78.64C17.9 78.64 16.1 78.7 14.54 78.82C12.98 78.94 11.36 79.06 9.68 79.18C8.12 79.42 6.14 79.54 3.74 79.54Z" fill="#F50000"/>
</svg>
