<svg width="1440" height="950" viewBox="0 0 1440 950" fill="none" xmlns="http://www.w3.org/2000/svg">
<path d="M797.048 150.952C795.868 201.28 808.18 320.159 866.868 393.052C940.228 484.168 1069.53 682.937 1076.26 749.987C1082.97 816.852 1049.67 896.277 1000.45 859.566C951.232 822.856 883.373 773.372 851.425 693.135C821.769 618.654 803.819 497.601 786.921 445.831C766.132 382.137 780.025 318.857 697.665 289.363C631.778 265.767 608.88 250.133 605.668 245.266L711.679 242.807" stroke="black" stroke-width="2.32368"/>
<path d="M796.817 152.532C930.651 151.953 1222.67 142.828 1283.06 130.232C1343.44 117.637 1563.2 51.6662 1665.53 20.2554C1673.02 56.0916 1694.32 136.548 1719.64 171.685C1751.29 215.607 1912.55 422.459 1921.6 539.875C1930.65 657.291 1922.88 715.675 1903.61 717.608C1888.2 719.153 1316.43 818.794 1032.48 868.42" stroke="black" stroke-width="2.32368"/>
<path d="M-470.517 216.958C-336.682 216.379 -44.668 207.254 15.7217 194.658C76.1114 182.062 295.867 116.092 398.196 84.6812C405.683 120.517 426.986 200.974 452.306 236.111C483.957 280.033 645.212 486.885 654.264 604.301C663.315 721.717 655.548 780.101 636.281 782.033C620.867 783.579 49.1013 883.219 -234.855 932.846" stroke="black" stroke-width="2.32368"/>
<path d="M767.984 218.867C735.898 217.221 715.694 216.831 683.609 215.185C756.737 276.82 858.286 458.835 896.337 620.904C938.223 799.309 994.699 844.885 1017.85 827.383C1041.01 809.881 1029.28 743.409 1006.19 711.084C983.098 678.76 919.734 508.796 879.795 455.975C839.857 403.154 743.215 157.518 743.215 157.518C743.215 157.518 780.113 163.21 798.549 173.687" stroke="black" stroke-width="2.32368"/>
<line x1="415.375" y1="503.68" x2="437.433" y2="294.921" stroke="black" stroke-width="1.49212"/>
<line x1="1060.59" y1="588.329" x2="1082.65" y2="379.57" stroke="black" stroke-width="1.49212"/>
<circle cx="469" cy="514.793" r="70" fill="black"/>
<circle cx="1109" cy="601.793" r="70" fill="black"/>
</svg>
