<svg width="158" height="136" viewBox="0 0 158 136" fill="none" xmlns="http://www.w3.org/2000/svg">
<path d="M134 135.8C132.267 135.8 129.467 134.733 125.6 132.6C121.733 130.6 117.733 127 113.6 121.8C110.4 118.467 107.067 114.867 103.6 111C100.133 107.133 96.4667 103.133 92.6 99C88.7333 94.8667 84.8 90.6667 80.8 86.4C76.9333 82.1333 73.0667 77.9333 69.2 73.8C65.3333 69.5333 61.4667 65.3333 57.6 61.2C53.7333 57.0667 50.0667 53.0667 46.6 49.2C43.1333 45.3333 39.8 41.7333 36.6 38.4C36.3333 37.8667 35.8667 37.4 35.2 37C34.6667 36.4667 34.2667 36.2 34 36.2C33.4667 36.2 33.0667 36.6667 32.8 37.6C32.6667 38.5333 32.6 39.3333 32.6 40C32.4667 46.1333 32.4667 53.3333 32.6 61.6C32.7333 69.8667 32.8667 78.2667 33 86.8C33.2667 95.2 33.4 102.867 33.4 109.8C33.4 114.067 34.7333 117.467 37.4 120C40.0667 122.4 44 124.267 49.2 125.6C50.6667 125.867 51.9333 126.333 53 127C54.2 127.533 54.8 128.4 54.8 129.6C54.8 130.533 54.2667 131.267 53.2 131.8C52.1333 132.333 51 132.6 49.8 132.6C46.2 132.6 43.2667 132.467 41 132.2C38.7333 132.067 36.6 132 34.6 132C32.7333 131.867 30.4 131.8 27.6 131.8C24.6667 131.8 21.8667 131.867 19.2 132C16.6667 132.133 14.4667 132.267 12.6 132.4C10.8667 132.533 9.66667 132.6 9 132.6C8.06667 132.6 7 132.4 5.8 132C4.73333 131.467 4.2 130.733 4.2 129.8C4.2 128.6 4.73333 127.733 5.8 127.2C6.86667 126.667 8.06667 126.133 9.4 125.6C12.6 124.4 15 122.4 16.6 119.6C18.3333 116.8 19.3333 113.333 19.6 109.2C20.1333 104.267 20.6667 97.7333 21.2 89.6C21.8667 81.4667 22.4667 72.3333 23 62.2C23.5333 51.9333 23.8 41.3333 23.8 30.4C23.8 23.4667 22 18.4667 18.4 15.4C14.9333 12.3333 10.6667 9.86667 5.6 8C4.53333 7.73333 3.33333 7.26666 2 6.59999C0.666667 5.8 1.41561e-07 4.8 1.41561e-07 3.6C1.41561e-07 2.4 0.533334 1.59999 1.6 1.19999C2.66667 0.666657 3.86667 0.39999 5.2 0.39999C7.6 0.39999 10.2667 0.466659 13.2 0.599999C16.2667 0.733331 19.4667 0.866662 22.8 0.999994C26.1333 0.999994 29.6 1.06666 33.2 1.19999C36.8 1.33332 40.4 1.39999 44 1.39999C45.0667 1.39999 45.8667 1.59999 46.4 1.99999C47.0667 2.4 47.6667 2.93333 48.2 3.6C51.1333 6.93333 54.2667 10.5333 57.6 14.4C61.0667 18.2667 64.6667 22.3333 68.4 26.6C72.1333 30.7333 75.9333 35 79.8 39.4C83.6667 43.6667 87.4667 48 91.2 52.4C95.0667 56.8 98.8 61.0667 102.4 65.2C106.133 69.3333 109.733 73.3333 113.2 77.2C116.667 81.0667 119.867 84.6667 122.8 88C123.2 88.5333 123.667 89.1333 124.2 89.8C124.867 90.3333 125.467 90.6 126 90.6C127.067 90.6 127.6 89.6 127.6 87.6C127.6 83.4667 127.6 78.6667 127.6 73.2C127.733 67.7333 127.8 61.9333 127.8 55.8C127.8 49.6667 127.733 43.6 127.6 37.6C127.6 31.6 127.467 26.0667 127.2 21C127.067 17.4 125.667 14.7333 123 13C120.467 11.1333 116.933 9.59999 112.4 8.39999C110.933 8.13333 109.667 7.66667 108.6 7C107.533 6.33333 107 5.39999 107 4.19999C107 3.26666 107.533 2.59999 108.6 2.19999C109.667 1.66666 110.8 1.39999 112 1.39999C115.067 1.39999 117.667 1.46666 119.8 1.6C121.933 1.6 123.867 1.6 125.6 1.6C127.333 1.6 129.267 1.6 131.4 1.6C134.067 1.6 136.333 1.6 138.2 1.6C140.067 1.46666 142.067 1.33332 144.2 1.19999C146.467 1.06666 149.333 0.999994 152.8 0.999994C154.4 0.999994 155.6 1.26666 156.4 1.8C157.333 2.33333 157.8 3.06666 157.8 3.99999C157.8 6 156.067 7.33333 152.6 8C147.933 8.93333 144.6 10.2667 142.6 12C140.6 13.7333 139.533 16.5333 139.4 20.4C139.4 25.2 139.333 30.3333 139.2 35.8C139.2 41.2667 139.067 46.8667 138.8 52.6C138.533 58.3333 138.267 64.0667 138 69.8C137.867 75.4 137.733 80.8 137.6 86C137.467 91.2 137.4 96 137.4 100.4C137.4 103.467 137.6 106.867 138 110.6C138.4 114.2 138.733 117.533 139 120.6C139.4 123.533 139.6 125.6 139.6 126.8C139.6 130.133 139.067 132.467 138 133.8C137.067 135.133 135.733 135.8 134 135.8Z" fill="#EBE8DD"/>
</svg>
