<svg width="1440" height="1004" viewBox="0 0 1440 1004" fill="none" xmlns="http://www.w3.org/2000/svg">
<path d="M480.587 570.389L492.464 450.394L502.39 443.194L496.75 498.075L509.105 641.039L484.289 659.037L480.587 570.389Z" stroke="black" stroke-width="2.91849"/>
<path d="M444.165 623.984L461.981 484.533C435.134 477.986 322.119 523.894 285.747 551.759L307.262 564.223L320.287 620.269L161.853 702.207L117.685 676.323L59.7695 680.013L35.8423 647.022L-23.8154 624.352L-46.8796 641.08L-35.6861 698.899L6.45124 756.998L84.3864 773.54C116.895 760.21 194.173 724.656 243.221 689.083C292.269 653.509 397.62 630.861 444.165 623.984Z" stroke="black" stroke-width="2.91849"/>
<path d="M96.6535 597.569L684.158 219.584L652.724 209.414L56.8454 542.682L96.6535 597.569Z" stroke="black" stroke-width="2.91849"/>
<path d="M76.5413 628.195L526.084 351.161L556.739 328.928L563.515 338.271L83.3781 651.75L76.5413 628.195Z" stroke="black" stroke-width="2.91849"/>
<path d="M83.0899 588.695L40.651 558.438L1.03854 576.921L6.49254 623.755L44.6581 637.063L79.4004 611.865L83.0899 588.695Z" stroke="black" stroke-width="2.91849"/>
<path d="M288.18 597.499L260.162 577.524L234.01 589.726L237.611 620.646L262.807 629.432L285.744 612.796L288.18 597.499Z" stroke="black" stroke-width="2.91849"/>
<path d="M214.519 638.452L186.501 618.476L160.349 630.678L163.949 661.598L189.146 670.384L212.083 653.748L214.519 638.452Z" stroke="black" stroke-width="2.91849"/>
<path d="M680.236 205.492L677.935 145.889L660.373 152.468L664.955 205.825L680.236 205.492Z" stroke="black" stroke-width="2.91849"/>
<path d="M1034.46 120.647L540.579 448.111L522.339 498.017L1128.5 287.5L1034.46 120.647Z" stroke="black" stroke-width="2.91849"/>
<path d="M946.014 451.324L531.105 515.951L532.7 559.959L1041.58 599.394L946.014 451.324Z" stroke="black" stroke-width="2.91849"/>
<path d="M936.804 650.66L548.293 586.467L533.284 627.535L935.132 745.528L936.804 650.66Z" stroke="black" stroke-width="2.91849"/>
<path d="M1406.73 541.922L973.758 662.414L967.813 741.563L1381.87 850.869L1406.73 541.922Z" stroke="black" stroke-width="2.91849"/>
<path d="M1351.24 235.83L944.5 392L1056.89 571.989L1545.3 472.345L1351.24 235.83Z" stroke="black" stroke-width="2.91849"/>
<path d="M804.369 348.234C804.136 348.269 803.889 348.217 803.629 348.077C803.378 347.996 803.234 347.838 803.199 347.605C803.137 347.196 803.264 346.849 803.579 346.562C803.894 346.276 804.251 346.072 804.651 345.952C807.481 344.926 809.935 343.779 812.011 342.509C814.138 341.172 815.383 339.342 815.748 337.017L820.948 302.733C821.281 300.592 820.752 299.269 819.362 298.763C817.963 298.199 816.069 297.918 813.682 297.921C813.381 297.907 813.071 297.834 812.753 297.704C812.426 297.514 812.24 297.274 812.196 296.982C812.125 296.515 812.306 296.129 812.737 295.825C813.16 295.462 813.571 295.221 813.971 295.101C815.579 294.678 817.214 294.043 818.877 293.194C820.599 292.336 822.248 291.4 823.826 290.385C825.404 289.37 826.762 288.477 827.899 287.708C828.057 287.565 828.219 287.451 828.385 287.366C828.609 287.272 828.809 287.212 828.984 287.186C829.218 287.15 829.436 287.207 829.637 287.356C829.83 287.446 829.886 287.617 829.804 287.868C829.528 288.805 829.295 289.826 829.103 290.929C828.903 291.975 828.692 293.141 828.469 294.429L822.015 337.591C821.818 339.054 822.061 340.063 822.741 340.616C823.481 341.161 824.515 341.482 825.843 341.58C827.23 341.669 828.776 341.823 830.481 342.042C830.782 342.056 831.066 342.163 831.335 342.361C831.604 342.559 831.702 342.813 831.63 343.122C831.607 343.365 831.467 343.625 831.21 343.902C830.945 344.122 830.666 344.253 830.374 344.297C828.857 344.527 827.359 344.694 825.882 344.798C824.473 344.952 823.092 345.101 821.741 345.246C820.389 345.391 819.042 345.565 817.7 345.768C816.24 345.989 814.756 346.244 813.247 346.532C811.738 346.82 810.229 347.108 808.721 347.396C807.279 347.734 805.828 348.013 804.369 348.234Z" fill="#F50000"/>
<path d="M944.076 306.095C943.784 306.296 943.184 306.673 942.275 307.227C941.399 307.829 940.361 308.507 939.16 309.262C938.008 309.983 936.807 310.737 935.558 311.525C934.308 312.313 933.173 313.058 932.151 313.76C931.179 314.43 929.906 315.341 928.335 316.493C926.811 317.613 925.223 318.741 923.569 319.879C921.997 321.032 920.604 322.026 919.388 322.863C918.254 323.714 917.516 324.257 917.176 324.491C917.03 324.592 916.638 324.647 915.999 324.656C915.409 324.632 915.031 324.498 914.863 324.255C914.663 323.963 914.585 323.694 914.631 323.448C914.676 323.201 914.729 322.914 914.79 322.586L917.978 301.906C918.652 297.572 918.681 293.396 918.066 289.377C917.499 285.324 916.078 281.643 913.803 278.336C912.164 275.952 910.178 274.524 907.846 274.05C905.48 273.527 903.275 273.969 901.232 275.374C899.335 276.679 897.928 278.435 897.01 280.643C896.108 282.769 895.681 284.961 895.73 287.22C895.737 287.646 895.677 288.081 895.553 288.525C895.428 288.969 895.196 289.308 894.855 289.542C894.612 289.709 894.235 289.682 893.724 289.46C893.262 289.205 892.83 288.785 892.429 288.202C891.994 287.569 891.773 286.467 891.766 284.895C891.726 283.275 891.978 281.453 892.522 279.431C893.066 277.409 893.97 275.39 895.234 273.373C896.499 271.357 898.177 269.63 900.268 268.191C902.7 266.518 905.16 265.614 907.647 265.48C910.101 265.297 912.426 265.812 914.621 267.024C916.783 268.188 918.668 269.938 920.274 272.273C921.177 273.586 921.896 275.205 922.432 277.129C923.016 279.021 923.397 280.98 923.574 283.008C923.751 285.036 923.747 287.01 923.562 288.928C923.465 290.142 923.226 291.774 922.847 293.827C922.516 295.846 922.138 298.005 921.713 300.304C921.303 302.52 920.908 304.655 920.528 306.708C920.115 308.711 919.787 310.37 919.544 311.684C919.35 312.964 919.286 313.653 919.353 313.75C919.487 313.944 919.928 313.856 920.676 313.485C921.618 312.98 922.641 312.384 923.745 311.696C924.897 310.976 926.106 310.18 927.37 309.31C928.684 308.407 929.956 307.496 931.187 306.577C932.467 305.625 933.682 304.682 934.831 303.749C936.077 302.748 937.023 301.883 937.667 301.153C938.311 300.423 938.717 299.606 938.884 298.703C939.1 297.767 939.141 296.628 939.006 295.287C939 294.861 939.034 294.337 939.106 293.713C939.179 293.09 939.41 292.645 939.799 292.377C940.091 292.176 940.369 292.164 940.634 292.34C940.899 292.517 941.09 292.743 941.209 293.02C941.464 293.704 941.757 294.649 942.085 295.856C942.414 297.063 942.793 298.343 943.222 299.696C943.617 301.001 944.053 302.206 944.527 303.313C944.898 304.061 944.973 304.69 944.751 305.201C944.544 305.63 944.319 305.928 944.076 306.095Z" fill="#F50000"/>
<path d="M1025.25 251.127C1025.06 252.411 1024.66 253.695 1024.05 254.978C1023.5 256.269 1022.81 257.33 1021.97 258.16C1021.2 258.941 1020.4 259.271 1019.58 259.149C1018.76 259.028 1017.93 258.815 1017.08 258.51C1016.24 258.146 1015.56 257.717 1015.03 257.221C1014.52 256.668 1014.31 256.07 1014.4 255.427C1014.47 254.96 1014.65 254.598 1014.92 254.34C1015.15 254.016 1015.5 253.709 1015.96 253.419C1017.07 252.749 1018.29 251.945 1019.63 251.009C1020.91 250.006 1021.65 248.832 1021.85 247.489C1022.12 245.679 1021.86 243.999 1021.07 242.45C1020.3 240.843 1019.04 239.492 1017.29 238.397C1015.55 237.244 1013.37 236.473 1010.74 236.083C1008.34 235.728 1006.19 235.737 1004.29 236.111C1002.38 236.485 1000.84 237.212 999.668 238.291C998.493 239.37 997.776 240.785 997.516 242.537C997.274 244.173 997.379 245.471 997.833 246.434C998.288 247.397 998.572 248.095 998.686 248.53C998.851 249.032 998.739 249.582 998.352 250.182C997.973 250.722 997.53 250.895 997.022 250.7C995.839 250.227 994.895 249.549 994.19 248.669C993.485 247.789 992.988 246.909 992.701 246.031C991.944 243.889 991.194 242.107 990.45 240.684C989.715 239.202 988.907 238.008 988.027 237.101C987.155 236.137 986.157 235.422 985.033 234.956C983.916 234.433 982.628 234.063 981.169 233.846C979.417 233.586 977.836 233.979 976.428 235.023C974.961 236.059 974.085 237.541 973.799 239.468C973.566 241.044 973.712 242.469 974.24 243.741C974.768 245.013 975.438 246.127 976.251 247.083C977.006 248.03 977.695 248.819 978.317 249.448C978.94 250.078 979.23 250.539 979.187 250.831C979.126 251.239 978.828 251.643 978.291 252.041C977.705 252.372 977.149 252.498 976.623 252.42C976.156 252.351 975.386 251.908 974.313 251.093C973.182 250.268 972.078 249.06 971.001 247.468C969.866 245.867 968.996 243.888 968.391 241.53C967.794 239.114 967.738 236.271 968.223 233.001C968.578 230.606 969.341 228.481 970.511 226.626C971.682 224.77 973.171 223.379 974.98 222.454C976.738 221.461 978.727 221.13 980.947 221.459C982.231 221.649 983.685 222.312 985.307 223.448C986.938 224.526 988.374 226.111 989.615 228.205C990.806 230.232 991.448 232.745 991.541 235.743C991.573 235.926 991.677 236.031 991.852 236.057C991.969 236.075 992.045 235.966 992.079 235.733C992.547 232.579 993.513 229.888 994.978 227.658C996.393 225.361 998.226 223.663 1000.48 222.565C1002.67 221.458 1005.23 221.121 1008.15 221.554C1011.36 222.03 1014.14 223.189 1016.5 225.03C1018.85 226.871 1020.77 229.186 1022.27 231.974C1023.72 234.695 1024.7 237.706 1025.23 241.007C1025.75 244.308 1025.76 247.681 1025.25 251.127Z" fill="#F50000"/>
<path d="M735.904 407.375C733.114 408.919 730.286 409.539 727.419 409.236C724.604 408.904 721.842 407.936 719.133 406.331C716.446 404.647 713.967 402.544 711.695 400.022C709.422 397.501 707.5 394.82 705.928 391.979C704.299 389.034 702.991 385.878 702.005 382.51C701.019 379.143 700.537 375.833 700.56 372.582C700.583 369.331 701.264 366.356 702.605 363.657C703.917 360.907 706.097 358.689 709.145 357.002C711.935 355.459 714.763 354.839 717.629 355.142C720.496 355.445 723.272 356.439 725.959 358.123C728.617 359.757 731.082 361.834 733.354 364.355C735.598 366.825 737.491 369.454 739.035 372.244C740.635 375.137 741.929 378.267 742.915 381.635C743.953 384.974 744.475 388.295 744.481 391.598C744.486 394.901 743.833 397.927 742.521 400.678C741.209 403.428 739.003 405.66 735.904 407.375ZM735.806 404.089C737.717 403.032 738.684 401.181 738.706 398.538C738.75 395.814 738.131 392.682 736.847 389.142C735.586 385.521 733.912 381.826 731.825 378.055C730.253 375.213 728.503 372.538 726.575 370.029C724.647 367.52 722.655 365.383 720.599 363.619C718.544 361.855 716.539 360.671 714.585 360.065C712.602 359.408 710.809 359.522 709.208 360.408C707.297 361.466 706.33 363.317 706.308 365.96C706.258 368.552 706.875 371.618 708.159 375.158C709.443 378.698 711.129 382.354 713.215 386.125C714.787 388.966 716.552 391.667 718.508 394.228C720.465 396.789 722.445 398.966 724.449 400.758C726.505 402.522 728.498 403.747 730.43 404.433C732.361 405.118 734.153 405.004 735.806 404.089Z" fill="#F50000"/>
<path d="M690.442 558.116C690.149 558.076 689.81 557.94 689.425 557.709C689.048 557.419 688.887 557.069 688.943 556.66C688.991 556.309 689.203 556.069 689.578 555.942C690.019 555.764 690.449 555.674 690.866 555.672C693.496 555.615 695.302 555.267 696.283 554.627C697.273 553.929 697.872 552.819 698.081 551.298L699.044 544.279C699.084 543.987 698.907 543.754 698.514 543.581C698.12 543.408 697.865 543.313 697.748 543.297C695.526 542.992 693.324 542.75 691.144 542.57C688.972 542.332 686.708 542.111 684.352 541.907C682.063 541.652 679.511 541.362 676.695 541.035C676.461 541.003 676.239 540.883 676.029 540.676C675.819 540.468 675.73 540.247 675.763 540.013C675.779 539.897 675.886 539.762 676.086 539.611C676.842 538.88 677.39 538.36 677.73 538.049C678.129 537.746 678.466 537.464 678.74 537.204C679.014 536.944 679.363 536.574 679.786 536.096L706.955 505.498C707.453 504.911 708.034 504.365 708.699 503.86C709.364 503.356 709.96 503.139 710.487 503.212L711.89 503.404C712.241 503.452 712.33 503.673 712.157 504.067C712.043 504.468 711.948 504.723 711.873 504.832L684.629 535.33C684.479 535.548 684.389 535.774 684.357 536.008C684.333 536.183 684.467 536.291 684.759 536.331L698.885 538.269C699.119 538.301 699.332 538.27 699.523 538.178C699.781 538.034 699.922 537.875 699.946 537.699L701.655 525.241C701.767 524.422 701.869 523.9 701.959 523.674C702.116 523.397 702.445 523.174 702.945 523.004C704.137 522.572 705.388 522.356 706.699 522.357C708.009 522.358 708.928 522.395 709.455 522.467C710.273 522.579 710.669 523.17 710.642 524.239C710.681 525.257 710.564 526.761 710.291 528.749L708.847 539.278C708.791 539.687 708.909 539.912 709.202 539.952C709.895 540.107 710.476 540.216 710.944 540.28C711.471 540.353 712.026 540.429 712.611 540.509C713.43 540.621 714.249 540.734 715.068 540.846C715.895 540.9 716.78 540.962 717.724 541.032C718.367 541.12 718.661 541.369 718.605 541.778C718.541 542.246 718.343 542.815 718.013 543.485C717.691 544.096 717.322 544.611 716.907 545.031C716.551 545.459 716.314 545.665 716.197 545.649C715.553 545.561 714.851 545.464 714.091 545.36C713.397 545.205 712.67 545.076 711.91 544.972C711.383 544.899 710.911 544.864 710.494 544.867C710.084 544.811 709.7 544.788 709.341 544.798C709.099 544.824 708.824 544.876 708.516 544.953C708.266 545.038 708.137 545.109 708.129 545.168L707.154 552.275C706.921 553.971 707.137 555.222 707.801 556.028C708.532 556.784 709.993 557.64 712.186 558.596C712.588 558.711 712.948 558.909 713.267 559.191C713.644 559.481 713.805 559.831 713.748 560.241C713.716 560.475 713.538 560.688 713.213 560.882C712.889 561.076 712.522 561.145 712.112 561.089C710.592 560.88 709.254 560.637 708.101 560.36C706.997 560.149 705.923 559.942 704.879 559.739C703.892 559.544 702.726 559.355 701.381 559.17C699.977 558.977 698.745 558.838 697.684 558.752C696.623 558.666 695.533 558.576 694.414 558.483C693.287 558.447 691.962 558.325 690.442 558.116Z" fill="#F50000"/>
<path d="M787.118 550.894C786.512 550.527 785.877 550.038 785.211 549.428C784.565 548.898 784.365 548.432 784.61 548.028C784.885 547.573 785.427 547.419 786.237 547.564C787.097 547.74 787.82 547.971 788.406 548.257C792.102 550.359 795.626 551.494 798.976 551.66C802.327 551.827 805.245 551.283 807.732 550.028C810.268 548.804 812.164 547.157 813.418 545.087C814.581 543.168 815.051 541.14 814.827 539.003C814.634 536.815 813.668 534.366 811.928 531.655C810.239 528.974 807.661 525.824 804.194 522.204C803.571 521.068 803.226 520.099 803.159 519.299C803.142 518.529 803.363 517.766 803.822 517.008C804.251 516.302 804.928 515.469 805.853 514.511C806.829 513.584 807.886 512.637 809.025 511.67C810.194 510.653 811.291 509.696 812.318 508.799C813.426 507.883 814.279 507.157 814.879 506.623C815.733 505.898 816.575 505.477 817.406 505.359C818.267 505.19 819.163 505.25 820.093 505.538C821.306 505.928 822.671 506.41 824.187 506.983C825.785 507.537 827.377 508.157 828.963 508.842C830.631 509.508 832.233 510.168 833.769 510.823C835.305 511.477 836.659 512.091 837.831 512.663C838.266 512.857 838.492 513.167 838.51 513.592C838.529 514.018 838.34 514.387 837.944 514.699C837.486 515.112 836.922 515.529 836.252 515.952C835.613 516.324 834.998 516.711 834.409 517.113C833.566 517.707 832.689 518.072 831.777 518.21C830.946 518.328 830.096 518.193 829.227 517.804C828.257 517.354 827.111 516.797 825.787 516.133C824.464 515.469 823.14 514.805 821.817 514.141C820.493 513.478 819.271 512.875 818.149 512.333C817.109 511.772 816.306 511.388 815.74 511.183C815.356 511.02 814.738 511.128 813.885 511.509C813.084 511.921 812.302 512.414 811.54 512.987C810.778 513.561 810.265 514.01 810 514.332C809.735 514.655 809.618 514.963 809.647 515.257C809.676 515.551 809.836 515.855 810.129 516.171C812.528 518.591 814.619 520.894 816.401 523.078C818.184 525.263 819.658 527.33 820.824 529.279C822.885 532.599 823.979 535.748 824.108 538.725C824.237 541.702 823.414 544.655 821.639 547.584C819.925 550.411 817.461 552.542 814.245 553.975C811.079 555.44 807.593 556.123 803.787 556.025C802.177 555.947 800.421 555.712 798.52 555.319C796.618 554.925 794.717 554.36 792.817 553.623C790.886 552.936 788.986 552.026 787.118 550.894Z" fill="#F50000"/>
<path d="M927.147 558.664C923.754 558.198 920.78 557.075 918.223 555.294C915.667 553.514 913.754 551.165 912.485 548.25C911.225 545.277 910.863 541.83 911.401 537.911C911.85 534.636 912.635 531.734 913.757 529.207C914.886 526.62 916.147 524.38 917.539 522.485C918.998 520.54 920.412 518.916 921.783 517.615C923.153 516.313 924.308 515.279 925.247 514.514C926.859 513.186 928.901 511.768 931.372 510.259C933.902 508.759 936.771 507.395 939.979 506.166C943.194 504.879 946.596 503.975 950.183 503.454C950.859 503.308 951.452 503.33 951.962 503.519C952.472 503.708 952.649 503.941 952.492 504.218C952.303 504.728 951.921 505.123 951.346 505.401C950.78 505.622 950.217 505.813 949.659 505.974C945.757 507.048 942.346 508.457 939.425 510.202C936.563 511.955 933.866 514.237 931.335 517.048C930.265 518.331 928.952 520.088 927.395 522.317C925.837 524.547 924.415 527.093 923.129 529.956C921.842 532.818 920.987 535.8 920.561 538.9C920.179 542.125 920.39 544.925 921.197 547.3C922.003 549.675 923.174 551.564 924.71 552.966C926.246 554.369 927.862 555.186 929.558 555.419C931.714 555.774 933.702 555.183 935.522 553.645C937.401 552.115 938.585 549.566 939.074 545.998C939.323 544.185 939.226 542.503 938.783 540.952C938.348 539.343 937.639 537.995 936.656 536.906C935.681 535.759 934.492 535.09 933.088 534.897C931.86 534.729 930.766 534.668 929.806 534.715C928.912 534.712 928.028 534.859 927.153 535.156C926.403 535.411 925.964 535.35 925.837 534.975C925.776 534.55 925.987 534.102 926.468 533.632C926.934 533.278 927.333 532.976 927.666 532.723C928.057 532.479 928.506 532.243 929.014 532.014C929.796 531.526 931.117 531.022 932.976 530.502C934.843 529.924 936.566 529.743 938.145 529.96C940.251 530.248 942.113 531.01 943.731 532.245C945.408 533.488 946.686 535.034 947.565 536.883C948.443 538.732 948.73 540.767 948.425 542.99C948.072 545.563 947.217 547.889 945.859 549.968C944.56 552.054 942.917 553.825 940.929 555.28C938.95 556.677 936.756 557.687 934.346 558.31C932.003 558.883 929.603 559.001 927.147 558.664Z" fill="#F50000"/>
<path d="M1113.57 501.529C1112.87 501.596 1112.32 501.411 1111.92 500.974C1111.52 500.538 1111.29 499.967 1111.22 499.261C1111.2 499.026 1111.38 498.475 1111.78 497.607C1112.17 496.74 1112.54 495.934 1112.88 495.19L1132.49 450.629C1132.64 450.319 1132.65 450.11 1132.52 450.004C1132.45 449.833 1132.11 449.746 1131.52 449.743L1109.92 451.794C1108.45 451.933 1107.24 452.315 1106.29 452.939C1105.4 453.498 1104.52 454.59 1103.67 456.213C1103.57 456.459 1103.4 456.831 1103.15 457.329C1102.9 457.827 1102.59 458.301 1102.22 458.752C1101.84 459.202 1101.48 459.444 1101.13 459.478C1100.84 459.506 1100.59 459.381 1100.38 459.104C1100.18 458.827 1100.06 458.541 1100.03 458.248C1100 457.895 1100.04 457.416 1100.16 456.812C1100.29 456.207 1100.36 455.755 1100.39 455.456C1100.54 453.9 1100.7 452.165 1100.88 450.251C1101.05 448.336 1101.13 446.727 1101.13 445.423C1101.08 444.894 1101.2 444.557 1101.48 444.411C1101.81 444.202 1102.07 444.118 1102.26 444.16C1102.55 444.132 1103.47 444.192 1105.03 444.341C1106.58 444.431 1108.27 444.39 1110.09 444.217C1111.21 444.111 1112.35 444.031 1113.54 443.978C1114.71 443.867 1115.92 443.782 1117.16 443.723C1118.45 443.601 1119.74 443.478 1121.04 443.355C1123.68 443.104 1126.24 442.861 1128.71 442.627C1131.23 442.328 1133.43 442.06 1135.3 441.823C1137.17 441.527 1138.43 441.319 1139.07 441.199C1139.24 441.182 1139.41 441.344 1139.56 441.686C1139.7 441.968 1139.79 442.257 1139.82 442.55C1139.86 442.962 1139.71 443.54 1139.36 444.284C1139.08 445.023 1138.7 445.799 1138.25 446.614C1137.79 447.428 1137.42 448.204 1137.13 448.943L1115.09 498.805C1114.91 499.356 1114.64 499.945 1114.28 500.572C1113.99 501.193 1113.75 501.512 1113.57 501.529Z" fill="#F50000"/>
<path d="M1240.05 442.616C1237.16 442.046 1234.58 440.937 1232.31 439.289C1230.11 437.651 1228.45 435.671 1227.34 433.347C1226.24 431.024 1225.95 428.529 1226.47 425.865C1226.95 423.432 1228.02 421.506 1229.68 420.088C1231.34 418.671 1233.22 417.565 1235.3 416.771C1237.38 415.977 1239.26 415.293 1240.94 414.721C1241.45 414.58 1241.62 414.435 1241.47 414.285C1241.39 414.088 1241.21 413.811 1240.91 413.453C1239.46 411.663 1238.09 409.919 1236.8 408.221C1235.58 406.477 1234.65 404.639 1234 402.707C1233.43 400.729 1233.37 398.581 1233.83 396.264C1234.3 393.831 1235.54 391.847 1237.52 390.313C1239.57 388.789 1241.97 387.728 1244.74 387.129C1247.56 386.541 1250.33 386.515 1253.06 387.05C1255.49 387.529 1257.71 388.477 1259.72 389.895C1261.78 391.324 1263.34 393.073 1264.37 395.142C1265.42 397.153 1265.71 399.376 1265.23 401.809C1264.81 403.952 1263.94 405.587 1262.64 406.714C1261.33 407.842 1260.05 408.703 1258.79 409.297C1257.92 409.728 1257.13 410.113 1256.4 410.451C1255.68 410.731 1254.82 411.104 1253.83 411.571C1252.92 411.933 1252.44 412.229 1252.39 412.461C1252.35 412.693 1252.56 413.005 1253.02 413.397C1254.87 415.325 1256.49 417.178 1257.88 418.956C1259.35 420.688 1260.38 422.486 1260.97 424.348C1261.64 426.164 1261.75 428.201 1261.31 430.46C1260.7 433.53 1259.3 436.082 1257.09 438.115C1254.89 440.149 1252.26 441.558 1249.22 442.343C1246.24 443.14 1243.18 443.231 1240.05 442.616ZM1241.94 439.918C1244.31 440.385 1246.45 439.903 1248.36 438.473C1250.33 436.996 1251.55 435.071 1252.02 432.695C1252.36 430.958 1252.17 429.204 1251.43 427.435C1250.76 425.677 1249.8 423.955 1248.57 422.269C1247.33 420.582 1246.07 419.04 1244.78 417.644C1244.49 417.285 1244.24 417.026 1244.03 416.864C1243.84 416.645 1243.59 416.507 1243.3 416.45C1243.13 416.416 1242.74 416.55 1242.14 416.853C1240.19 417.913 1238.69 419.122 1237.64 420.48C1236.59 421.838 1235.81 423.82 1235.29 426.427C1234.91 428.397 1234.88 430.348 1235.23 432.28C1235.58 434.155 1236.31 435.802 1237.41 437.223C1238.58 438.655 1240.08 439.553 1241.94 439.918ZM1250.8 410.434C1252.76 409.374 1254.19 407.911 1255.1 406.044C1256.01 404.177 1256.69 402.056 1257.16 399.681C1257.63 397.306 1257.45 395.164 1256.62 393.256C1255.86 391.302 1254.27 390.086 1251.83 389.607C1250.56 389.356 1249.24 389.459 1247.89 389.915C1246.6 390.382 1245.43 391.115 1244.39 392.114C1243.41 393.125 1242.77 394.383 1242.47 395.889C1242.09 397.859 1242.17 399.561 1242.73 400.995C1243.29 402.428 1244.16 403.832 1245.33 405.207C1246.58 406.534 1247.95 408.128 1249.45 409.987C1249.65 410.206 1249.86 410.368 1250.08 410.471C1250.35 410.586 1250.6 410.574 1250.8 410.434Z" fill="#F50000"/>
<path d="M1331.75 410.138C1331.18 410.313 1330.75 410.322 1330.46 410.167C1330.18 410.068 1330.01 409.905 1329.94 409.68C1329.81 409.285 1329.89 408.922 1330.15 408.592C1330.42 408.261 1330.75 408.035 1331.15 407.912C1332.94 407.296 1334.73 406.091 1336.52 404.299C1338.35 402.432 1340.05 400.236 1341.61 397.71C1343.23 395.167 1344.56 392.562 1345.58 389.894C1346.52 387.318 1347.2 384.755 1347.65 382.206C1348.13 379.583 1348.3 376.935 1348.15 374.262C1348.06 371.571 1347.56 368.787 1346.67 365.912C1346.06 363.938 1345.14 362.061 1343.9 360.28C1342.73 358.482 1341.38 356.922 1339.86 355.602C1338.32 354.226 1336.75 353.259 1335.15 352.703C1333.54 352.091 1332.03 352.003 1330.62 352.441C1328.99 352.948 1327.72 353.837 1326.81 355.107C1325.97 356.359 1325.48 357.777 1325.35 359.362C1325.23 360.946 1325.43 362.585 1325.95 364.276C1326.48 365.968 1327.36 367.517 1328.6 368.925C1329.88 370.259 1331.28 371.277 1332.79 371.981C1334.35 372.611 1335.77 372.725 1337.07 372.322C1338.54 371.867 1339.58 371.329 1340.19 370.707C1340.8 370.084 1341.46 369.445 1342.19 368.788C1342.68 368.387 1343.07 368.358 1343.36 368.7C1343.66 369.042 1343.71 369.426 1343.54 369.852C1343.41 370.447 1343.17 371.049 1342.8 371.657C1342.49 372.248 1342.19 372.774 1341.9 373.235C1341.61 373.696 1341.08 374.292 1340.32 375.023C1339.61 375.737 1338.82 376.448 1337.92 377.158C1337.01 377.811 1336.02 378.304 1334.95 378.637C1332.98 379.249 1330.88 379.374 1328.67 379.01C1326.44 378.59 1324.44 377.727 1322.67 376.42C1320.95 375.04 1319.75 373.278 1319.09 371.136C1318.49 369.219 1318.34 367.133 1318.63 364.88C1318.9 362.57 1319.59 360.316 1320.7 358.117C1321.85 355.844 1323.36 353.83 1325.22 352.076C1327.15 350.305 1329.43 349.008 1332.08 348.186C1334.23 347.521 1336.48 347.409 1338.84 347.85C1341.2 348.292 1343.46 349.198 1345.62 350.568C1347.81 351.865 1349.72 353.529 1351.34 355.561C1352.96 357.593 1354.16 359.849 1354.93 362.33C1356.01 365.826 1356.49 369.263 1356.36 372.64C1356.24 376.017 1355.66 379.348 1354.64 382.632C1353.66 385.842 1352.37 389.055 1350.77 392.271C1349.78 394.248 1348.51 396.22 1346.95 398.185C1345.44 400.077 1343.79 401.826 1342 403.432C1340.28 405.077 1338.53 406.488 1336.73 407.664C1334.93 408.841 1333.27 409.665 1331.75 410.138Z" fill="#F50000"/>
<path d="M1297.45 685.553C1296.98 685.604 1296.58 685.47 1296.24 685.15C1295.91 684.83 1295.74 684.374 1295.74 683.78L1295.78 677.717C1295.81 677.417 1295.73 677.218 1295.54 677.12C1295.41 677.016 1295.26 676.973 1295.08 676.993C1293.46 676.873 1291.89 676.6 1290.36 676.175C1288.88 675.684 1287.47 675.066 1286.15 674.321C1285.89 674.112 1285.62 673.874 1285.35 673.606C1285.09 673.338 1284.88 673.035 1284.72 672.696C1284.17 671.508 1283.74 670.012 1283.43 668.205C1283.11 666.399 1282.84 664.765 1282.62 663.305C1282.54 662.6 1283.03 662.19 1284.09 662.074C1284.5 662.029 1284.83 662.082 1285.09 662.232C1285.33 662.324 1285.54 662.539 1285.69 662.878C1286.83 665.664 1288.2 667.889 1289.81 669.553C1291.41 671.159 1293.13 672.247 1294.98 672.817C1295.16 672.856 1295.34 672.866 1295.52 672.847C1295.69 672.769 1295.76 672.612 1295.73 672.377L1295.82 653.748C1295.85 653.448 1295.79 653.187 1295.65 652.965C1295.51 652.743 1295.19 652.541 1294.69 652.357C1292.63 651.396 1290.61 650.341 1288.64 649.191C1286.73 648.034 1285.13 646.637 1283.82 644.999C1282.5 643.302 1281.71 641.221 1281.44 638.756C1281.16 636.174 1281.51 633.73 1282.5 631.423C1283.5 629.117 1285.1 627.159 1287.29 625.552C1289.49 623.886 1292.21 622.755 1295.47 622.159C1296.06 622.036 1296.33 621.799 1296.29 621.446L1296.37 616.537C1296.37 615.944 1296.61 615.501 1297.12 615.208C1297.62 614.915 1298.22 614.73 1298.93 614.653C1299.28 614.614 1299.59 614.758 1299.87 615.085C1300.14 615.411 1300.3 615.78 1300.34 616.19C1300.32 616.49 1300.28 616.969 1300.23 617.628C1300.25 618.28 1300.26 618.932 1300.27 619.584C1300.28 620.236 1300.28 620.741 1300.26 621.1C1300.3 621.452 1300.52 621.635 1300.94 621.648C1302.2 621.748 1303.38 621.915 1304.47 622.151C1305.57 622.388 1306.49 622.643 1307.23 622.918C1307.77 622.977 1308.21 623.196 1308.55 623.575C1308.88 623.895 1309.13 624.312 1309.31 624.828C1309.73 625.91 1310.19 627.195 1310.71 628.682C1311.23 630.111 1311.56 631.559 1311.72 633.026C1311.76 633.319 1311.64 633.57 1311.36 633.778C1311.14 633.922 1310.85 634.013 1310.5 634.051C1309.97 634.109 1309.46 634.076 1308.97 633.951C1308.48 633.768 1308.16 633.536 1308.01 633.256C1306.95 631.175 1305.82 629.517 1304.61 628.283C1303.41 627.05 1302.04 626.22 1300.51 625.794C1300.21 625.826 1300.08 625.989 1300.11 626.283L1299.95 642.604C1299.93 643.022 1299.99 643.312 1300.13 643.475C1300.33 643.632 1300.83 643.932 1301.66 644.377C1304.09 645.475 1306.27 646.661 1308.19 647.935C1310.17 649.144 1311.79 650.629 1313.05 652.391C1314.31 654.153 1315.08 656.325 1315.37 658.907C1315.88 663.602 1314.77 667.525 1312.03 670.677C1309.28 673.829 1305.38 675.832 1300.3 676.686C1299.89 676.731 1299.68 676.933 1299.66 677.292L1299.6 684.069C1299.59 684.486 1299.35 684.809 1298.9 685.036C1298.46 685.323 1297.97 685.495 1297.45 685.553ZM1300.51 672.922C1302.89 672.423 1304.68 671.336 1305.86 669.662C1307.1 667.982 1307.59 665.968 1307.33 663.62C1307.07 661.214 1306.34 659.424 1305.14 658.248C1303.99 657.008 1302.41 655.875 1300.4 654.849C1299.96 654.659 1299.77 654.828 1299.83 655.357L1299.62 672.128C1299.69 672.715 1299.99 672.98 1300.51 672.922ZM1295.34 641.239C1295.84 641.481 1296.08 641.426 1296.04 641.074L1296.13 626.541C1296.13 626.007 1295.9 625.795 1295.44 625.905C1293.47 626.359 1291.88 627.247 1290.65 628.568C1289.49 629.884 1289.06 631.891 1289.36 634.591C1289.51 635.999 1290.12 637.239 1291.19 638.309C1292.25 639.321 1293.64 640.298 1295.34 641.239Z" fill="#F50000"/>
<path d="M758.092 664.446C757.666 664.764 757.152 664.815 756.551 664.6C755.962 664.303 755.196 663.622 754.256 662.556C752.279 660.494 750.285 658.409 748.273 656.3C746.226 654.144 744.279 652.024 742.433 649.939C740.586 647.855 738.904 645.942 737.387 644.201C735.917 642.425 734.724 640.921 733.808 639.69C732.843 638.494 732.388 637.14 732.44 635.629C732.54 634.082 733.182 632.869 734.366 631.987C735.502 631.141 736.778 630.927 738.194 631.345C739.574 631.716 740.74 632.541 741.692 633.819C742.609 635.05 743.66 636.66 744.845 638.648C746.078 640.6 747.381 642.795 748.754 645.232C750.175 647.634 751.624 650.125 753.103 652.704C754.582 655.283 756.008 657.791 757.381 660.229C757.921 661.151 758.278 662.027 758.452 662.854C758.638 663.598 758.519 664.129 758.092 664.446ZM769.217 679.239C767.938 680.191 766.514 680.552 764.945 680.322C763.375 680.092 762.132 679.362 761.215 678.131C760.263 676.852 759.902 675.428 760.132 673.858C760.362 672.289 761.116 671.028 762.394 670.076C763.673 669.124 765.073 668.781 766.596 669.046C768.165 669.275 769.426 670.03 770.378 671.308C771.295 672.539 771.638 673.94 771.408 675.509C771.226 677.044 770.495 678.287 769.217 679.239Z" fill="#F50000"/>
<path d="M869.375 690.662C869.266 690.936 868.904 691.205 868.291 691.468C867.622 691.71 866.888 691.799 866.087 691.733C865.079 691.712 863.977 691.686 862.782 691.654C861.554 691.546 860.063 691.141 858.308 690.441C856.718 689.807 855.626 688.481 855.032 686.464C854.438 684.448 854.014 681.768 853.759 678.424C853.626 676.846 853.274 675.338 852.702 673.903C852.076 672.445 851.105 671.454 849.789 670.929C847.431 669.988 845.277 669.891 843.326 670.639C841.32 671.364 839.836 672.933 838.873 675.346C838.611 676.004 838.447 676.574 838.382 677.056C838.283 677.462 838.234 677.824 838.235 678.142C838.158 678.493 838.071 678.871 837.972 679.277C837.896 679.628 837.77 680.022 837.595 680.461C837.333 681.119 836.807 681.64 836.018 682.025C835.174 682.387 834.253 682.624 833.256 682.734C832.225 682.768 831.326 682.632 830.559 682.325C829.681 681.975 829.089 681.23 828.781 680.091C828.44 678.874 828.466 677.772 828.86 676.785C829.516 675.14 830.606 673.604 832.128 672.178C833.651 670.751 835.475 669.604 837.601 668.736C839.673 667.846 841.848 667.252 844.128 666.954C846.375 666.58 848.513 666.479 850.542 666.653C852.592 666.771 854.357 667.126 855.838 667.717C857.921 668.548 859.386 669.577 860.231 670.805C861.076 672.032 861.543 673.171 861.632 674.224C861.743 675.539 861.875 676.641 862.029 677.529C862.184 678.417 862.311 679.294 862.41 680.16C862.531 680.971 862.719 681.935 862.972 683.053C863.148 684.522 863.692 685.629 864.603 686.374C865.535 687.064 866.692 687.748 868.074 688.426C868.513 688.601 868.897 688.913 869.226 689.363C869.523 689.735 869.572 690.168 869.375 690.662ZM885.463 696.222C884.894 697.648 883.881 698.674 882.424 699.3C880.966 699.926 879.524 699.955 878.099 699.386C876.618 698.795 875.565 697.771 874.939 696.314C874.312 694.856 874.284 693.415 874.853 691.989C875.443 690.508 876.467 689.455 877.925 688.829C879.382 688.203 880.852 688.185 882.332 688.776C883.758 689.344 884.784 690.358 885.41 691.815C886.036 693.273 886.054 694.742 885.463 696.222Z" fill="#F50000"/>
<path d="M1069.65 721.736C1066.7 724.538 1063.4 726.685 1059.77 728.175C1056.18 729.708 1052.48 730.529 1048.68 730.636C1044.88 730.744 1041.2 730.124 1037.64 728.776C1034.09 727.345 1030.87 725.109 1027.99 722.067C1024.66 718.554 1022.35 714.839 1021.08 710.921C1019.85 706.963 1019.49 703.028 1020.02 699.116C1020.58 695.164 1021.87 691.377 1023.89 687.756C1025.86 684.092 1028.44 680.757 1031.61 677.751C1034.14 675.354 1036.98 673.551 1040.15 672.34C1043.31 671.047 1046.59 670.382 1049.97 670.347C1053.31 670.269 1056.54 670.835 1059.64 672.045C1062.7 673.212 1065.4 675.038 1067.76 677.523C1070.2 680.093 1071.69 682.952 1072.23 686.098C1072.73 689.202 1072.46 692.264 1071.42 695.285C1070.38 698.223 1068.73 700.768 1066.46 702.921C1065.47 703.855 1064.54 704.373 1063.66 704.475C1062.78 704.493 1062.03 704.432 1061.41 704.29C1060.79 704.064 1060.37 704.053 1060.16 704.256C1059.9 704.5 1059.61 705.181 1059.29 706.3C1058.97 707.336 1058.47 708.617 1057.81 710.145C1057.14 711.589 1056.08 713.001 1054.63 714.382C1052.4 716.495 1049.88 717.66 1047.08 717.877C1044.27 718.095 1041.73 717.004 1039.46 714.605C1036.86 711.863 1035.27 708.856 1034.69 705.583C1034.07 702.267 1034.3 699.037 1035.39 695.892C1036.47 692.747 1038.28 689.976 1040.81 687.58C1041.49 686.93 1042.32 686.263 1043.3 685.579C1044.32 684.855 1045.11 684.353 1045.66 684.076C1046.21 683.798 1046.65 683.58 1046.99 683.422C1047.33 683.264 1047.56 683.124 1047.69 683.002C1047.91 682.799 1047.98 682.488 1047.91 682.068C1047.83 681.649 1047.78 681.251 1047.75 680.874C1047.72 680.497 1047.81 680.207 1048.02 680.004C1048.15 679.883 1048.37 679.721 1048.66 679.52C1048.96 679.319 1049.28 679.182 1049.61 679.107C1049.91 678.99 1050.05 679.014 1050.05 679.181C1050.56 680.323 1051.22 681.614 1052.01 683.055C1052.77 684.453 1053.35 685.492 1053.75 686.17L1060.56 696.061C1060.76 696.359 1060.98 696.678 1061.23 697.018C1061.43 697.316 1061.67 697.615 1061.95 697.915C1062.4 698.386 1062.89 698.733 1063.43 698.956C1063.97 699.179 1064.45 699.088 1064.88 698.682C1066.38 697.26 1067.44 695.597 1068.08 693.693C1068.67 691.746 1068.77 689.744 1068.37 687.687C1067.92 685.587 1066.86 683.659 1065.2 681.902C1062.27 678.818 1058.93 676.787 1055.15 675.809C1051.38 674.832 1047.58 674.856 1043.75 675.882C1039.92 676.824 1036.43 678.798 1033.25 681.804C1030.68 684.241 1028.65 686.985 1027.15 690.035C1025.61 693.043 1024.69 696.192 1024.39 699.483C1024.05 702.732 1024.41 705.977 1025.45 709.221C1026.49 712.381 1028.31 715.332 1030.91 718.073C1033.35 720.644 1036.14 722.556 1039.28 723.809C1042.38 725.019 1045.6 725.626 1048.94 725.632C1052.32 725.597 1055.6 724.932 1058.76 723.638C1061.97 722.387 1064.88 720.523 1067.49 718.045C1068.91 716.704 1070.23 715.048 1071.45 713.076C1072.71 711.064 1073.77 708.962 1074.62 706.771C1075.52 704.54 1076.09 702.488 1076.35 700.616C1076.41 700.158 1076.48 699.721 1076.58 699.306C1076.75 698.893 1076.95 698.585 1077.16 698.382C1077.93 697.651 1078.6 697.585 1079.17 698.185C1079.62 698.657 1079.69 699.807 1079.39 701.636C1079.1 703.466 1078.52 705.601 1077.66 708.042C1076.84 710.526 1075.73 713.002 1074.33 715.471C1073.01 717.941 1071.45 720.03 1069.65 721.736ZM1054.57 709.432C1055.3 708.742 1055.82 708.004 1056.13 707.219C1056.49 706.393 1056.78 705.461 1057.02 704.423C1057.16 703.801 1057.16 703.153 1057.01 702.481C1056.86 701.726 1056.41 700.774 1055.64 699.626L1050.41 691.531C1050.37 691.405 1050.29 691.278 1050.17 691.149C1050.05 691.021 1049.91 690.871 1049.74 690.699C1048.61 689.5 1047.26 688.984 1045.71 689.151C1044.21 689.278 1042.77 689.992 1041.4 691.291C1040.2 692.429 1039.38 693.931 1038.96 695.799C1038.54 697.584 1038.67 699.571 1039.36 701.761C1040.02 703.908 1041.34 706.031 1043.33 708.131C1044.83 709.716 1046.29 710.694 1047.7 711.066C1049.11 711.438 1050.4 711.472 1051.58 711.169C1052.76 710.783 1053.76 710.204 1054.57 709.432Z" fill="#F50000"/>
<path d="M1181.57 734.682C1181.4 734.845 1181.13 734.9 1180.75 734.848C1180.46 734.799 1180.21 734.667 1180.01 734.453L1179.77 734.196L1172.05 720.648L1168.31 724.557C1168.01 724.842 1167.67 725 1167.3 725.031C1166.88 725.02 1166.55 724.886 1166.3 724.629C1165.86 724.158 1165.43 723.583 1165.03 722.904C1164.63 722.225 1164.38 721.571 1164.27 720.942C1164.21 720.272 1164.39 719.734 1164.82 719.328L1168.88 715.113L1163.07 704.874L1159.08 709.027C1158.82 709.354 1158.48 709.512 1158.06 709.501C1157.64 709.49 1157.33 709.377 1157.13 709.163C1156.64 708.649 1156.2 708.094 1155.8 707.499C1155.4 706.82 1155.14 706.166 1155.04 705.537C1154.93 704.824 1155.09 704.264 1155.52 703.858L1159.9 699.339L1152.6 686.491C1152.16 685.853 1152.09 685.267 1152.39 684.732C1152.7 684.114 1153.11 683.561 1153.63 683.074C1153.84 682.871 1154.07 682.814 1154.32 682.904C1154.61 682.954 1154.88 683.107 1155.12 683.364C1155.17 683.407 1155.2 683.491 1155.24 683.618C1155.28 683.661 1155.34 683.725 1155.43 683.811L1162.67 696.469L1169.63 689.262L1162.15 676.097C1161.7 675.458 1161.64 674.872 1161.94 674.337C1162.25 673.719 1162.66 673.166 1163.18 672.679C1163.39 672.476 1163.62 672.419 1163.87 672.509C1164.16 672.559 1164.43 672.712 1164.67 672.969C1164.71 673.012 1164.75 673.097 1164.79 673.223C1164.79 673.306 1164.83 673.391 1164.91 673.477L1172.27 686.389L1175.88 682.601C1176.22 682.276 1176.56 682.118 1176.89 682.127C1177.27 682.095 1177.6 682.229 1177.89 682.529C1178.21 682.872 1178.55 683.403 1178.91 684.122C1179.26 684.842 1179.48 685.578 1179.54 686.332C1179.64 687.044 1179.48 687.646 1179.05 688.135L1175.44 691.923L1181.25 702.163L1185.18 698.07C1185.48 697.786 1185.84 697.649 1186.25 697.661C1186.63 697.629 1186.94 697.741 1187.18 697.999C1187.55 698.384 1187.91 698.937 1188.27 699.656C1188.62 700.375 1188.83 701.112 1188.9 701.865C1188.92 702.576 1188.74 703.156 1188.35 703.605L1184.42 707.697L1192.08 721.056C1192.44 721.692 1192.47 722.235 1192.16 722.687C1191.9 723.181 1191.53 723.651 1191.06 724.098C1190.85 724.301 1190.55 724.377 1190.18 724.325C1189.89 724.276 1189.64 724.144 1189.44 723.929L1189.25 723.737L1181.71 710.507L1174.75 717.838L1182.6 731.515C1182.95 732.151 1183 732.716 1182.74 733.21C1182.47 733.704 1182.09 734.195 1181.57 734.682ZM1171.58 712.304L1178.6 705.037L1172.73 694.858L1165.78 702.064L1171.58 712.304Z" fill="#F50000"/>
<path d="M1294.62 787.066C1291.91 787.885 1289.27 788.154 1286.72 787.875C1284.16 787.54 1281.92 786.672 1280.02 785.273C1278.16 783.8 1276.86 781.848 1276.12 779.417C1274.88 775.291 1275.09 771.375 1276.74 767.668C1278.38 763.906 1280.98 760.441 1284.52 757.275L1285.99 756L1284.61 755.12C1283.92 754.652 1282.98 754.102 1281.8 753.47C1280.61 752.782 1279.46 751.927 1278.35 750.905C1277.28 749.81 1276.5 748.442 1276 746.803C1275.4 744.825 1275.47 742.894 1276.2 741.009C1276.98 739.108 1278.24 737.464 1279.98 736.076C1281.7 734.631 1283.72 733.559 1286.04 732.861C1288.53 732.11 1290.77 731.988 1292.77 732.494C1294.82 732.927 1296.52 733.77 1297.88 735.023C1299.25 736.276 1300.17 737.694 1300.65 739.277C1301.4 741.577 1301.19 743.738 1300.01 745.758C1298.89 747.762 1297.1 749.69 1294.63 751.543L1293.35 752.486L1295.05 753.544C1297.65 754.982 1300.04 756.293 1302.25 757.478C1304.46 758.662 1306.71 760.109 1309.02 761.819L1310.67 762.987L1311.59 761.137C1312.5 759.445 1313.3 757.628 1314.01 755.687C1314.78 753.73 1315.36 751.982 1315.76 750.443C1316.14 748.848 1316.26 747.796 1316.11 747.287C1315.95 746.778 1315.57 746.338 1314.97 745.965C1314.36 745.593 1313.69 745.424 1312.96 745.459C1312.7 745.415 1312.38 745.359 1311.99 745.291C1311.64 745.15 1311.43 744.967 1311.36 744.741C1311.21 744.232 1311.37 743.845 1311.84 743.578C1312.37 743.295 1312.81 743.102 1313.15 742.999C1313.49 742.897 1314.1 742.775 1314.98 742.632C1315.84 742.433 1316.75 742.253 1317.68 742.094C1318.66 741.86 1319.43 741.658 1320 741.488C1320.96 741.198 1321.97 740.77 1323.03 740.203C1324.1 739.636 1325.13 739.077 1326.14 738.527C1327.12 737.92 1327.99 737.506 1328.72 737.285C1328.95 737.217 1329.24 737.253 1329.59 737.394C1329.92 737.478 1330.11 737.605 1330.16 737.775C1330.28 738.17 1330.15 738.643 1329.76 739.192C1329.37 739.741 1328.9 740.129 1328.35 740.356C1326.93 740.969 1325.76 741.785 1324.84 742.804C1323.89 743.767 1323.14 744.735 1322.57 745.708C1322.26 746.11 1321.75 746.973 1321.04 748.298C1320.38 749.605 1319.61 751.133 1318.72 752.881C1317.81 754.574 1316.93 756.257 1316.08 757.932C1315.23 759.607 1314.46 761.042 1313.77 762.236C1313.14 763.413 1312.74 764.149 1312.59 764.443L1314.64 766.043C1317.18 767.928 1319.53 769.378 1321.69 770.393C1323.84 771.408 1325.94 771.608 1327.97 770.994C1329.05 770.67 1330.12 770.253 1331.2 769.743C1332.27 769.176 1333.26 768.476 1334.18 767.643C1334.37 767.462 1334.59 767.272 1334.84 767.074C1335.09 766.876 1335.35 766.734 1335.63 766.649C1336.03 766.529 1336.34 766.529 1336.56 766.647C1336.82 766.692 1337.02 766.941 1337.15 767.393C1337.32 767.958 1336.94 768.937 1336 770.329C1335.12 771.705 1333.9 773.061 1332.33 774.398C1330.76 775.735 1329.01 776.693 1327.09 777.273C1324.94 777.92 1323 778.135 1321.27 777.917C1319.62 777.739 1317.97 777.187 1316.33 776.262C1314.74 775.263 1312.89 773.94 1310.79 772.292L1309.07 770.87L1308.71 771.532C1307.54 773.982 1306.34 776.254 1305.12 778.348C1303.91 780.442 1302.47 782.231 1300.82 783.715C1299.17 785.199 1297.11 786.316 1294.62 787.066ZM1296.26 779.634C1298.58 778.935 1300.53 777.852 1302.13 776.385C1303.78 774.901 1305.24 772.917 1306.53 770.432L1307 769.549L1305.41 768.271C1303.22 766.527 1300.75 764.868 1297.99 763.294C1295.29 761.704 1292.44 760.006 1289.43 758.2L1288.05 757.32L1286.59 758.595C1284.81 760.056 1283.59 761.627 1282.92 763.308C1282.3 764.915 1282.04 766.532 1282.16 768.161C1282.29 769.789 1282.58 771.367 1283.04 772.893C1283.89 775.719 1285.53 777.783 1287.96 779.086C1290.44 780.372 1293.21 780.554 1296.26 779.634ZM1291.5 751.284L1292.34 750.384C1293.49 749.297 1294.15 747.896 1294.31 746.182C1294.47 744.469 1294.31 742.792 1293.81 741.153C1293.25 739.288 1292.32 737.748 1291.03 736.534C1289.72 735.264 1288.17 734.902 1286.36 735.447C1284.89 735.89 1283.74 736.791 1282.92 738.15C1282.08 739.451 1281.87 740.809 1282.3 742.222C1282.69 743.522 1283.14 744.618 1283.66 745.511C1284.23 746.387 1284.99 747.174 1285.94 747.874C1286.89 748.574 1288.11 749.347 1289.6 750.193L1291.5 751.284Z" fill="#F50000"/>
</svg>
