<svg width="1440" height="1244" viewBox="0 0 1440 1244" fill="none" xmlns="http://www.w3.org/2000/svg">
<g clip-path="url(#clip0_394_7)">
<rect width="1440" height="1244" fill="#EBE8DD"/>
<path d="M1119.28 652.193C1134.27 636.492 1144.67 641.353 1151.21 618.655C1185.25 631.668 1164.73 652.193 1202.44 652.193C1210.47 652.193 1266.09 640.466 1271 668.121C1275.91 695.776 1400.8 741.124 1426.82 772.049C1452.84 802.975 1417.9 880.884 1409.87 918.203C1403.44 948.058 1221.87 1015.58 1131.16 977.246C1119.28 977.246 1080.9 946.474 1068.53 933.509C1053.06 917.303 1010.49 863.283 1001.57 784.482C992.652 705.681 1100.55 671.819 1119.28 652.193Z" fill="#F50000" stroke="#F50000" stroke-width="0.297363"/>
<path d="M1142.12 654.402C1092.73 662.272 1110.44 666.039 1061.32 608.571C1057.38 602.937 1049.3 589.853 1048.42 582.59C1047.54 575.327 1056.9 575.626 1061.68 576.683C1065.18 564.187 1072.5 538.758 1073.8 537.014C1075.42 534.835 1160.71 514.474 1171.93 524.241C1180.9 532.055 1181.15 544.757 1180.15 550.132C1181.12 547.22 1187.41 542.514 1204.77 546.984C1226.48 552.572 1186.29 562.82 1192.28 573.509C1198.28 584.198 1191.51 646.531 1142.12 654.402Z" fill="#F50000"/>
<path d="M1385.52 401.685L1370.66 401.387L1382.29 383.831C1388.61 382.713 1400.16 379.69 1395.77 376.546C1390.29 372.616 1391.52 369.619 1394.77 360.848C1398.02 352.078 1408.07 367.683 1412.65 379.746C1416.32 389.396 1401.02 391.486 1392.91 391.324L1385.52 401.685Z" fill="#F50000"/>
<path d="M1238.89 609.061C1259.47 554.941 1329.54 562.127 1362 572.485C1385.49 574.567 1440.5 584.796 1472.62 609.061C1504.73 633.326 1486 712.394 1486 712.394C1486 712.394 1474.4 710.253 1456.56 701.689C1434.26 690.984 1408.39 737.373 1399.47 766.812C1390.55 796.251 1463.7 836.395 1486 844.423C1508.3 852.452 1539.52 1044.1 1510.09 1071.76C1480.65 1099.41 1222.98 1072.65 1184.62 1065.51C1146.26 1058.38 1160.54 1040.53 1153.4 980.913C1147.69 933.216 1171.84 861.125 1184.62 831.042C1206.58 833.421 1254.23 822.121 1269.22 757.891C1284.21 693.661 1208.71 690.984 1208.71 690.984C1208.71 690.984 1218.31 663.181 1238.89 609.061Z" fill="#211A6A"/>
<path d="M1359.21 671.839C1351.43 694.637 1336.61 744.722 1339.58 762.683C1343.3 785.134 1331.55 777.997 1339.58 801.935C1347.61 825.873 1390.43 894.117 1365.01 901.403C1339.58 908.688 1315.64 904.525 1321.44 930.544" stroke="#F50000" stroke-width="3.00318"/>
<path d="M1348.19 670.5C1341.99 697.946 1328.83 762.084 1325.76 799.068C1321.93 845.299 1376.18 852.722 1353.75 881.574C1331.32 910.426 1307.16 900.471 1310.81 945.858" stroke="#F50000" stroke-width="3.00318"/>
<path d="M1294.38 931.144L1316.79 1070.75L1334.82 931.144H1294.38Z" fill="#F50000"/>
<path d="M1334.82 661.58C1322.33 700.904 1298.26 788.207 1301.9 822.82C1306.45 866.088 1327.45 929.121 1294.38 919.316C1261.3 909.511 1212.86 873.558 1237.47 864.531C1262.08 855.504 1314.91 848.501 1288.11 864.531C1261.3 880.562 1249.85 864.531 1255.97 864.531M1316.79 1070.75L1294.38 931.144H1334.82L1316.79 1070.75Z" stroke="#F50000" stroke-width="3.00318"/>
<path d="M1320.55 678.975L1370.66 401.387H1385.67L1370.66 678.975H1320.55Z" fill="#F50000"/>
<path d="M1179.62 757.948C1142.01 731.334 1135.32 686.284 1135.02 686.73H1119.41C1106.92 686.73 1089.13 720.927 1081.79 738.025C1083.48 747.689 1088.09 771.984 1093.09 791.848C1099.34 816.677 1121.64 804.04 1147.51 817.718C1168.2 828.661 1244.35 842.201 1279.83 847.603V858.457L1268.83 911.387L1279.83 915.551L1282.51 894.735L1288.9 900.088C1289.2 903.854 1290.51 912.22 1293.36 915.551C1296.93 919.714 1298.87 918.673 1301.54 900.088C1304.22 881.503 1302.43 891.018 1306.89 892.951C1310.46 894.497 1307.19 923.133 1305.11 937.258H1315.52V911.387C1315.52 900.801 1312.25 887.053 1310.61 881.503L1315.52 891.018V894.735L1327.86 918.673C1328.3 920.358 1330.27 922.717 1334.55 918.673C1338.83 914.629 1327.61 885.269 1321.46 871.095C1320.57 862.967 1318.13 845.076 1315.52 838.534C1312.25 830.356 1275.22 821.287 1242.22 809.541C1209.21 797.795 1217.24 784.562 1179.62 757.948Z" fill="#F50000"/>
<path d="M430.43 362.719C432.526 351.569 515.784 381.331 537.744 390.269L519.805 485.7L529.298 551.147L516.905 637.014L554.835 755.803L576.646 843.394C573.124 857.793 564.125 890.998 556.302 908.631C548.479 926.263 541.292 951.334 538.677 961.665L516.905 957.573L520.461 938.657L554.854 843.936L544.479 810.891L501.927 754.447L488.27 769.402C496.991 794.463 513.787 847.348 511.198 858.406C507.962 872.228 489.549 932.846 487.92 944.908C486.616 954.559 481.523 959.28 479.674 969.118L477.639 979.94L435.335 971.987C446.681 967.248 445.247 960.938 469.113 929.004C498.945 889.087 473.485 861.624 475.512 837.267C477.539 812.91 397.076 764.374 382.44 716.098C367.805 667.822 382.394 618.25 382.44 597.643C382.486 577.037 399.424 500.509 404.774 478.838C410.123 457.167 427.81 376.657 430.43 362.719Z" fill="#211A6A"/>
<path d="M346.72 507.232L412.511 514.753L432.676 486.438L317.327 479.507L288.296 562.829H327.338L346.72 507.232Z" fill="#211A6A"/>
<path d="M571.2 567.496L515.582 531.556L517.968 496.876L611.511 564.723L581.068 647.54L550.896 622.763L571.2 567.496Z" fill="#211A6A"/>
<path d="M299.571 588.904L288.296 563.018L315.801 542.574L350.862 573.314V584.118L325.88 560.076L339.034 573.314L334.251 579.197L320.755 573.314L325.88 588.904L320.755 596.993L299.571 567.577L304.814 584.118L299.571 588.904Z" fill="#211A6A"/>
<path d="M560.021 673.169L581.583 646.912L573.302 613.658L526.426 603.712L532.745 612.707L554.404 620.787L535.838 622.669L535.801 630.252L549.965 634.27L541.284 644.841L548.017 650.37L569.976 643.281L556.442 659.762L560.021 673.169Z" fill="#211A6A"/>
<path d="M465.366 407.02L377.198 370.14L382.925 339.805L449.561 347.192L469.178 309.762L538.453 307.703L542.621 346.065L591.323 347.974L608.66 368.708L589.682 389.844L551.791 401.515L548.63 401.391L465.366 407.02Z" fill="#F50000"/>
<path d="M430.579 637.928L424.867 572.358L438.611 485.748L439.712 474.605L456.073 466.816L440.17 533.498L436.891 633.087L430.579 637.928Z" fill="#F50000"/>
<path d="M528.808 538.34L519.076 473.95L519.429 470.111L511.94 468.703L510.741 493.72L515.515 534.022L515.667 582.045L510.872 634.261L522.508 635.329L524.482 613.829L525.846 570.591L528.808 538.34Z" fill="#F50000"/>
<path d="M497.329 960.284L458.398 940.775C441.677 948.071 416.201 967.776 448.057 988.22C479.914 1008.66 513.253 1007.83 525.94 1004.86L490.601 973.709L497.329 960.284Z" fill="#211A6A"/>
<path d="M573.539 953.503L536.841 930.061C519.454 935.584 492.071 952.54 521.636 976.178C551.2 999.815 584.446 1002.44 597.373 1000.8L565.455 966.158L573.539 953.503Z" fill="#F50000"/>
<path d="M717.308 1150.18L764.585 1079.73L776.729 1052.66L825.68 1039.09L854.842 1070.22L825.817 1082.92L811.409 1078.41L717.308 1150.18Z" fill="#F50000"/>
<path d="M1042.29 541.776C1042.29 531.89 966.283 537.657 928.28 541.776L894.095 622.397L861.448 688.16L789.659 786.288L723.51 858.377L661.976 929.877C663.287 942.774 667.719 972.659 674.967 989.019C682.214 1005.38 686.191 1028.01 687.273 1037.27H723.51V1020.5L696.845 933.849L723.51 907.22L808.973 865.733L826.408 880.739C804.814 900.796 761.832 943.382 762.652 953.269C763.678 965.627 774.959 1020.5 773.933 1031.1C773.113 1039.57 727.669 1047.08 705.05 1049.78L742.141 1057.72L895.291 1077.14C878.484 1071.26 837.689 1051.69 808.973 1020.5C773.079 981.516 822.306 962.096 826.408 940.911C830.51 919.726 890.164 889.566 928.28 850.58C966.397 811.593 1042.29 768.34 1048.44 750.685C1054.6 733.031 1050.49 664.768 1048.44 645.348C1046.39 625.928 1042.29 554.134 1042.29 541.776Z" fill="#211A6A"/>
<path d="M570.595 1110.17L653.074 1058.54L656.767 1050.2L736.374 1044.1L752.788 1089.65H716.267L703.136 1078.42L570.595 1110.17Z" fill="#F50000"/>
<path d="M602.737 1049.1C615.216 1051.51 661.969 1042.67 686.077 1037.42L691.034 1022.12H717.356L723.852 1034.48C724.535 1035.46 731.954 1039.89 756.157 1049.78C780.36 1059.67 801.908 1064.2 809.657 1065.23L774.104 1069.2C751.656 1070.67 700.571 1073.05 675.821 1070.82C652.503 1068.71 619.061 1056.17 602.737 1049.1C601.355 1048.84 600.393 1048.43 599.93 1047.87C600.797 1048.26 601.735 1048.67 602.737 1049.1Z" fill="#211A6A"/>
<path d="M881.533 733.297C848.597 797.171 864.409 712.461 794.037 785.302C723.665 858.142 778.643 815.156 714.098 812.781C649.553 810.406 668.208 710.311 640.873 810.763C613.537 911.215 682.097 839.388 689.104 882.934C699.363 946.682 594.056 998.14 667.662 1030.38C726.547 1056.18 826.605 1049.01 869.274 1042.21C916.455 1037.73 1014.7 1039.41 1030.24 1082C1045.79 1124.58 1193.35 1059.93 1285.39 1098.66C1375.62 1136.63 1461.07 1370.15 1473.09 1264.84C1485.1 1159.53 1523.47 1261.67 1541.16 1325.9" stroke="#F50000" stroke-width="3.00318"/>
<path d="M889.816 562.138L1068.57 551.706C1059.47 539.535 1033.7 514.311 1003.37 510.78C973.033 507.249 915.028 543.548 889.816 562.138Z" fill="#F50000"/>
<path d="M838.93 654.134L904.721 661.655L924.886 633.341L809.537 626.409V709.732L849.696 681.417L838.93 654.134Z" fill="#211A6A"/>
<path d="M871.1 730.856L879.087 700.917L897.746 703.2L889.089 735.654L876.794 744.367L871.1 730.856Z" fill="#F50000"/>
<path d="M869.476 703.608L875.549 680.84L907.66 687.249L904.194 712.869L869.476 703.608Z" fill="#F50000"/>
<path d="M817.349 736.811V702.836L844.854 682.392L887.392 704.454L876.8 707.395L854.933 699.894L868.087 713.131L863.304 719.015L849.808 713.131V726.81H841.095L828.624 707.395V728.722L817.349 736.811Z" fill="#211A6A"/>
<path d="M80.59 1126.85C82.1969 1122.12 84.2353 1098.86 85.0536 1087.82H92.0838V1110.14L102.462 1124.92C110.236 1129.51 127.614 1139.35 134.935 1142.07C142.255 1144.79 173.396 1166.36 188.052 1176.81C170.495 1175.58 132.569 1171.04 121.321 1162.77C107.26 1152.42 88.4014 1147.24 80.59 1142.07C72.7787 1136.9 78.5814 1132.76 80.59 1126.85Z" fill="#F50000"/>
<path d="M94.344 527.972L98.2497 519.99L157.281 561.674C176.661 571.775 218.009 593.1 228.364 597.593C241.309 603.21 257.659 592.218 258.547 595.236C261.039 603.711 263.716 622.663 254.253 634.843C244.79 647.023 238.779 655.685 236.957 658.493C235.097 652.581 227.427 635.05 221.892 618.14C216.357 601.23 164.981 570.789 139.984 557.683L94.344 527.972Z" fill="#F50000"/>
<path d="M236.957 658.493C235.097 652.581 227.427 635.05 221.892 618.14C216.357 601.23 164.981 570.789 139.984 557.683L94.344 527.972L98.2497 519.99L157.281 561.674C176.661 571.775 218.009 593.1 228.364 597.593C241.309 603.21 257.659 592.218 258.547 595.236M236.957 658.493C243.094 639.08 260.092 600.489 258.547 595.236M236.957 658.493C238.779 655.685 244.79 647.023 254.253 634.843C263.716 622.663 261.039 603.711 258.547 595.236" stroke="#F50000" stroke-width="0.251714"/>
<path d="M119.201 565.296C118.419 557.905 128.686 554.406 133.261 553.175L128.351 546.819C127.086 548.247 123.329 551.756 118.419 554.357C112.282 557.609 114.268 567.996 116.188 576.234C119.004 588.322 129.578 589.784 136.274 594.711C142.969 599.638 160.266 611.857 160.266 611.857C169.193 616.932 187.399 628.708 189.837 628.708C192.404 628.708 198.653 631.96 208.585 630.778C218.264 629.625 213.383 623.239 213.16 614.222C212.981 607.009 210.221 599.195 209.812 597.519L204.232 594.711C204.976 597.273 207.134 605.147 209.812 616.144C213.16 629.891 207.134 625.456 195.417 624.717C182.804 623.922 145.982 592.789 131.922 584.807C117.861 576.825 120.126 574.051 119.201 565.296Z" fill="#F50000" stroke="#F50000" stroke-width="0.251714"/>
<path d="M62.2892 513.856C57.5578 511.49 57.7884 530.411 58.4952 540.167C68.7243 553.076 91.1912 583.211 99.2257 600.475C107.26 617.74 141.928 626.786 158.257 629.152C161.642 635.803 172.965 651.797 191.176 662.558C213.941 676.009 207.58 709.415 223.984 729.518C240.388 749.621 207.58 819.833 207.58 838.31C207.58 856.787 143.192 985.534 125.449 998.986C111.255 1009.75 104.731 1060.33 103.243 1084.28C101.904 1089.84 94.2041 1097.64 74.1178 1084.28C49.01 1067.57 158.257 876.742 176 848.362C193.743 819.981 187.382 783.027 176 761.298C164.618 739.57 172.206 742.822 176 709.415C179.794 676.009 165.845 709.415 158.257 684.287C150.669 659.158 79.9205 641.42 74.1178 638.464C68.3151 635.508 43.3189 606.388 32.941 600.475C22.5631 594.563 26.8035 543.862 27.1383 538.393C27.4061 534.018 45.4763 501.685 54.4779 486.066C53.3992 482.667 50.1705 475.394 45.8855 473.502C40.5291 471.137 48.5636 448.669 48.7868 436.992C49.01 425.314 77.0192 414.524 89.1825 413.045C101.346 411.567 117.303 446.6 118.196 451.034C118.91 454.582 113.807 458.523 111.166 460.051C111.91 462.317 113.844 469.866 115.629 481.927C117.861 497.005 104.136 497.744 103.243 502.474C102.35 507.204 104.805 521.394 99.2257 536.028C94.7621 547.735 80.6273 543.665 74.1178 540.167C72.1464 532.382 67.0207 516.221 62.2892 513.856Z" fill="#211A6A" stroke="black" stroke-width="0.251714"/>
<path d="M73.1139 548.149C66.597 538.097 57.454 540.413 53.6971 542.827C49.0475 547.016 38.9226 558.378 35.6195 570.321C32.3164 582.265 44.5095 590.868 51.019 593.676L74.5645 600.771C84.7937 611.365 106.234 634.118 110.162 640.386C114.09 646.653 139.547 651.373 151.785 652.95C154.352 637.971 159.485 606.093 159.485 598.406C159.485 590.72 168.784 601.609 173.434 608.014V598.406L163.948 593.676L181.58 589.981V573.869L196.533 563.67V555.392C191.549 558.151 179.951 563.67 173.434 563.67C166.917 563.67 180.687 543.37 188.387 533.219L181.58 529.524C176.93 540.906 166.894 562.014 163.948 555.392C161.002 548.77 165.176 547.804 167.631 548.149C169.268 548.149 172.719 547.085 173.434 542.827C174.326 537.506 167.631 539.723 163.948 536.767C160.266 533.811 156.695 533.219 155.802 552.288C154.91 571.356 149.107 558.939 145.424 563.67C141.742 568.4 146.317 572.095 149.107 573.869C151.897 575.643 150 589.981 149.107 598.406C148.214 606.832 135.493 629.595 131.922 632.551C128.351 635.508 93.5349 602.545 88.9597 589.981C84.3845 577.416 81.26 560.713 73.1139 548.149Z" fill="#211A6A"/>
</g>
<defs>
<clipPath id="clip0_394_7">
<rect width="1440" height="1244" fill="white"/>
</clipPath>
</defs>
</svg>
